<svg xmlns="http://www.w3.org/2000/svg" width="5.85" height="9.812" viewBox="0 0 5.85 9.812">
  <defs>
    <style>
      .cls-1 {
        fill: #0439d6;
        fill-rule: evenodd;
      }
    </style>
  </defs>
  <path id="Forma_6_copiar" data-name="Forma 6 copiar" class="cls-1" d="M1294.23,660.112a0.967,0.967,0,0,0-1.38,0,1,1,0,0,0,0,1.395l3.21,3.235-3.21,3.234a0.99,0.99,0,0,0-.01,1.39c0.01,0,.01,0,0.01,0a0.97,0.97,0,0,0,1.38.006v-0.006l3.9-3.931a0.991,0.991,0,0,0,.01-1.391c-0.01,0-.01,0-0.01-0.006Z" transform="translate(-1292.56 -659.844)"/>
</svg>
