<svg xmlns="http://www.w3.org/2000/svg" width="19.87" height="20" viewBox="0 0 19.87 20">
  <defs>
    <style>
      .cls-1 {
        fill: #0439d6;
        fill-rule: evenodd;
      }
    </style>
  </defs>
  <path id="Forma_16" data-name="Forma 16" class="cls-1" d="M1482.16,6496.08a2.964,2.964,0,0,0-2.28-1.08h-4.54l0.56-1.43a4.144,4.144,0,0,0-2.42-5.31,4.266,4.266,0,0,0-1.45-.26,0.987,0.987,0,0,0-.91.59l-2.84,6.41h-2.33a2.994,2.994,0,0,0-2.99,3v7a2.994,2.994,0,0,0,2.99,3h12.66a3,3,0,0,0,2.94-2.46l1.26-7A3,3,0,0,0,1482.16,6496.08Zm-14.22,9.92h-1.99a1,1,0,0,1-1-1v-7a1,1,0,0,1,1-1h1.99v9Zm12.93-7.82-1.26,7a1,1,0,0,1-1,.82h-8.68v-9.79l2.7-6.12a2.116,2.116,0,0,1,1.43,2.62c-0.02.05-.03,0.11-0.05,0.16l-0.53,1.43a1.991,1.991,0,0,0,1.17,2.57,1.8,1.8,0,0,0,.69.13h4.54A1.021,1.021,0,0,1,1480.87,6498.18Z" transform="translate(-1462.97 -6488)"/>
</svg>
