<svg xmlns="http://www.w3.org/2000/svg" width="20" height="20" viewBox="0 0 20 20">
  <defs>
    <style>
      .cls-1 {
        fill: #ef0732;
        fill-rule: evenodd;
      }
    </style>
  </defs>
  <path id="Forma_2" data-name="Forma 2" class="cls-1" d="M442.81,61.28a3.726,3.726,0,0,0,1-2.5,3.78,3.78,0,1,0-7.56,0,3.726,3.726,0,0,0,1,2.5A5.941,5.941,0,0,0,434,65.89a1.006,1.006,0,1,0,2,.22,4,4,0,0,1,7.94,0A1,1,0,0,0,445,67h0.11a1,1,0,0,0,.88-1.1A5.94,5.94,0,0,0,442.81,61.28ZM440,60.56a1.78,1.78,0,1,1,1.78-1.78h0A1.78,1.78,0,0,1,440,60.56ZM447,51H433a3,3,0,0,0-3,3V68a3,3,0,0,0,3,3h14a3,3,0,0,0,3-3V54A3,3,0,0,0,447,51Zm1,17a1,1,0,0,1-1,1H433a1,1,0,0,1-1-1V54a1,1,0,0,1,1-1h14a1,1,0,0,1,1,1V68Z" transform="translate(-430 -51)"/>
</svg>
