<svg xmlns="http://www.w3.org/2000/svg" width="25.03" height="22.969" viewBox="0 0 25.03 22.969">
  <defs>
    <style>
      .cls-1 {
        fill: #ef0732;
        fill-rule: evenodd;
      }
    </style>
  </defs>
  <path id="Forma_7" data-name="Forma 7" class="cls-1" d="M1183.04,748.193h-1.25v-1.3a1.256,1.256,0,1,0-2.51,0v1.3h-1.25a1.3,1.3,0,0,0,0,2.6h1.25v1.3a1.256,1.256,0,1,0,2.51,0v-1.3h1.25A1.3,1.3,0,0,0,1183.04,748.193Zm7.7-7.807a47.144,47.144,0,0,0-21.18.909,8.4,8.4,0,0,0,.77,10.659l7.5,7.871a3.657,3.657,0,0,0,5.31,0l7.5-7.871a8.388,8.388,0,0,0,.13-11.537Zm-1.76,9.706-7.51,7.807a1.218,1.218,0,0,1-1.77.008V757.9l-7.51-7.807a5.743,5.743,0,0,1,0-7.806,5.2,5.2,0,0,1,7.51,0,1.218,1.218,0,0,0,1.77.007v-0.007a5.2,5.2,0,0,1,7.51,0,5.735,5.735,0,0,1,0,7.832v-0.026Z" transform="translate(-1168 -738)"/>
</svg>
