<svg xmlns="http://www.w3.org/2000/svg" width="17.281" height="20.062" viewBox="0 0 17.281 20.062">
  <defs>
    <style>
      .cls-1 {
        fill: #ef0732;
        fill-rule: evenodd;
      }
    </style>
  </defs>
  <path id="Forma_1" data-name="Forma 1" class="cls-1" d="M256.292,53.316a8.757,8.757,0,0,0-12.225,0,8.382,8.382,0,0,0,0,12.006l5.368,5.283a1.033,1.033,0,0,0,1.441.006l0.006-.006,5.41-5.333A8.349,8.349,0,0,0,256.292,53.316Zm-1.457,10.525-4.656,4.592-4.656-4.592a6.382,6.382,0,0,1,0-9.14,6.666,6.666,0,0,1,9.307,0A6.382,6.382,0,0,1,254.835,63.841Zm-7.712-7.594a4.268,4.268,0,0,0,0,6.1,4.447,4.447,0,0,0,6.209.005,4.274,4.274,0,0,0,1.289-3.007,4.2,4.2,0,0,0-1.284-3.051,4.438,4.438,0,0,0-6.195-.069ZM251.9,60.93a2.4,2.4,0,0,1-3.357.025,2.3,2.3,0,0,1-.025-3.3,2.4,2.4,0,0,1,3.356-.025,2.246,2.246,0,0,1-.025,3.3H251.9Z" transform="translate(-241.531 -50.844)"/>
</svg>
