<svg xmlns="http://www.w3.org/2000/svg" width="20" height="20" viewBox="0 0 20 20">
  <defs>
    <style>
      .cls-1 {
        fill: #ef0732;
        fill-rule: evenodd;
      }
    </style>
  </defs>
  <path id="phone" class="cls-1" d="M1535.98,163.784a1.566,1.566,0,0,1,.74.184,2.656,2.656,0,0,1,1.42,1.578,1.9,1.9,0,0,1-.21,1.5l-0.59.984-0.71,1.194,0.98,0.984,5.17,5.172,0.98,0.985,1.19-.717,0.99-.59a1.914,1.914,0,0,1,.99-0.281,2.441,2.441,0,0,1,2.1,1.542,1.635,1.635,0,0,1-.59,2.129l-2.31,1.461a1.943,1.943,0,0,1-2.42-.27l-10.35-10.362a1.948,1.948,0,0,1-.27-2.427l0.99-1.573,0.43-.675a1.754,1.754,0,0,1,1.47-.82m0-1.784a3.55,3.55,0,0,0-2.98,1.651c-0.48.76-.97,1.543-1.42,2.248a3.74,3.74,0,0,0,.52,4.642l10.35,10.362a3.719,3.719,0,0,0,4.63.515c0.73-.458,1.53-0.968,2.31-1.461a3.437,3.437,0,0,0,1.23-4.457,4.189,4.189,0,0,0-3.69-2.5,3.717,3.717,0,0,0-1.91.535l-0.98.59-5.17-5.171,0.59-.985c1.04-1.738.64-4.214-1.9-5.57a3.387,3.387,0,0,0-1.58-.4h0Z" transform="translate(-1531 -162)"/>
</svg>
