<svg xmlns="http://www.w3.org/2000/svg" width="22" height="20" viewBox="0 0 22 20">
  <defs>
    <style>
      .cls-1 {
        fill: #0439d6;
        fill-rule: evenodd;
      }
    </style>
  </defs>
  <path id="Forma_15" data-name="Forma 15" class="cls-1" d="M1216,6489h-10a3,3,0,0,0-3,3v7a3,3,0,0,0,3,3h10a3,3,0,0,0,3-3v-7A3,3,0,0,0,1216,6489Zm1,10a1,1,0,0,1-1,1h-10a1,1,0,0,1-1-1v-7a1,1,0,0,1,1-1h10a1,1,0,0,1,1,1v7Zm-3.5-4a1.477,1.477,0,0,0-1,.39,1.5,1.5,0,1,0,2.02,0A1.527,1.527,0,0,0,1213.5,6495Zm-1.5,9a1,1,0,0,0-1,1v1a1,1,0,0,1-1,1h-10a1,1,0,0,1-1-1v-4h1a1,1,0,0,0,0-2h-1v-1a1,1,0,0,1,1-1,1,1,0,0,0,0-2,3,3,0,0,0-3,3v7a3,3,0,0,0,3,3h10a3,3,0,0,0,3-3v-1A1,1,0,0,0,1212,6504Zm-10,1h1a1,1,0,0,0,0-2h-1A1,1,0,0,0,1202,6505Z" transform="translate(-1197 -6489)"/>
</svg>
