<svg xmlns="http://www.w3.org/2000/svg" width="19.937" height="17.91" viewBox="0 0 19.937 17.91">
  <defs>
    <style>
      .cls-1 {
        fill: #0439d6;
        fill-rule: evenodd;
      }
    </style>
  </defs>
  <path id="Forma_12" data-name="Forma 12" class="cls-1" d="M423.892,6505.23a4.273,4.273,0,1,0-3.652,2.05,4.381,4.381,0,0,0,2.229-.63l1.712,1.72a0.992,0.992,0,0,0,1.407,0h0.006a1,1,0,0,0,.006-1.41h-0.006Zm-1.99-.57a2.356,2.356,0,0,1-3.255,0,2.3,2.3,0,0,1,3.252-3.25h0A2.3,2.3,0,0,1,421.9,6504.66Zm1-13.91H408.963a2.98,2.98,0,0,0-2.985,2.98v8.94a2.988,2.988,0,0,0,2.985,2.99h3.981a1,1,0,1,0,0-1.99h-3.981a1,1,0,0,1-1-1v-5.96h15.924v1a1,1,0,0,0,1.991,0v-3.98A2.98,2.98,0,0,0,422.9,6490.75Zm1,3.97H407.968v-0.99a0.991,0.991,0,0,1,1-.99H422.9a0.99,0.99,0,0,1,1,.99v0.99Zm-9.952,3.98h-2.986a1,1,0,1,0,0,1.99h2.986A1,1,0,1,0,413.94,6498.7Z" transform="translate(-405.969 -6490.75)"/>
</svg>
