<svg xmlns="http://www.w3.org/2000/svg" width="17.313" height="20.07" viewBox="0 0 17.313 20.07">
  <defs>
    <style>
      .cls-1 {
        fill: #0439d6;
        fill-rule: evenodd;
      }
    </style>
  </defs>
  <path id="Forma_13" data-name="Forma 13" class="cls-1" d="M687.3,6491.31a8.766,8.766,0,0,0-12.225,0,8.387,8.387,0,0,0,0,12.01l5.368,5.28a1.024,1.024,0,0,0,1.441.01s0,0,.006-0.01l5.41-5.33A8.354,8.354,0,0,0,687.3,6491.31Zm-1.457,10.53-4.656,4.59-4.656-4.59a6.382,6.382,0,0,1,0-9.14,6.674,6.674,0,0,1,9.307,0A6.387,6.387,0,0,1,685.842,6501.84Zm-7.712-7.59a4.264,4.264,0,0,0,0,6.1,4.445,4.445,0,0,0,6.209,0,4.243,4.243,0,0,0,1.289-3,4.186,4.186,0,0,0-1.284-3.05,4.436,4.436,0,0,0-6.194-.07A0.035,0.035,0,0,0,678.13,6494.25Zm4.778,4.68a2.4,2.4,0,0,1-3.357.02,2.294,2.294,0,0,1-.025-3.29,2.4,2.4,0,0,1,3.356-.03,2.249,2.249,0,0,1-.025,3.3h0.051Z" transform="translate(-672.531 -6488.84)"/>
</svg>
