<svg xmlns="http://www.w3.org/2000/svg" xmlns:xlink="http://www.w3.org/1999/xlink" width="115.595" height="113.967" viewBox="0 0 115.595 113.967"><defs><style>.a{fill:none;}.b{fill:#056cef;}.c{clip-path:url(#a);}.d{fill:url(#b);}</style><clipPath id="a"><path class="a" d="M1474.635,740.173v12.8h8.588V780.93a28.062,28.062,0,1,1-56.124,0V752.976h8.589v-12.8h-21.455V780.93a40.928,40.928,0,0,0,81.856,0V740.173Z" transform="translate(-1414.233 -740.173)"/></clipPath><linearGradient id="b" x1="-13.62" y1="1.243" x2="-13.611" y2="1.243" gradientUnits="objectBoundingBox"><stop offset="0" stop-color="#fff"/><stop offset="1" stop-color="#d2dcf7"/></linearGradient></defs><path class="b" d="M1456.334,834.359a50.6,50.6,0,0,1-39.407-18.8.68.68,0,0,1,1.055-.857,49.386,49.386,0,0,0,87.758-31.112V768.621a.68.68,0,0,1,1.359,0v14.971a50.824,50.824,0,0,1-50.766,50.767m-48.6-37.941a.678.678,0,0,1-.657-.514,50.813,50.813,0,0,1-1.51-12.312v-63.2H1507.1v21.013a.68.68,0,0,1-1.359,0V721.751h-98.812v61.841a49.468,49.468,0,0,0,1.468,11.982.679.679,0,0,1-.66.844" transform="translate(-1402.648 -720.392)"/><g transform="translate(12.759 22.462)"><g class="c"><rect class="d" width="115.639" height="115.639" transform="translate(-40.842 40.842) rotate(-45)"/></g></g><path class="b" d="M1423.407,771.231q-.387-.192-.387-.452c0-.258.235-.389.712-.389h1.944a141.936,141.936,0,0,1,11.015-15.94,35.95,35.95,0,0,1,8.878-7.744q4.406-2.557,6.8-2.557,1.557,0,1.556,1.362,0,2.979-3.077,6.058a18.375,18.375,0,0,1-5.217,3.983,2.1,2.1,0,0,1-.519.131c-.171,0-.258-.108-.258-.325a1.1,1.1,0,0,1,.194-.518q3.755-5.509,3.757-7.323c0-.3-.129-.452-.388-.452a5.52,5.52,0,0,0-2.591,1.424q-4.408,3.3-15.423,21.9h4.991c.6,0,.906.089.906.261,0,.216-.161.452-.486.712a1.434,1.434,0,0,1-.745.387h-4.6q-.906,0-.906.455,0,.194.1,1.1a14.18,14.18,0,0,1,.1,1.425q0,6.025-3.661,14.483a79.935,79.935,0,0,1-9.492,16.23,76.129,76.129,0,0,1-6.222,7.387,29.382,29.382,0,0,1-4.308,3.855,4.78,4.78,0,0,1-2.17.94q-.906,0-.907-1.23,0-5.965,12.376-27.8,0-.065,1.231-2.332t3.6-6.512q2.364-4.243,4.762-8.132Zm4.6,5.314a6.884,6.884,0,0,0-.2-1.684q-10.237,17.628-14.253,26.112-3.7,7.648-3.694,8.945c0,.171.065.258.194.258q.91,0,4.471-4.213,3.757-4.4,8.619-13.931t4.859-15.487" transform="translate(-1402.997 -717.172)"/><path class="b" d="M1443.71,792.023q-5.379,4.926-7.387,4.925c-.605,0-.907-.349-.907-1.038a11.473,11.473,0,0,1,1.133-3.953,43.344,43.344,0,0,1,2.3-4.665l1.167-2.009a1.763,1.763,0,0,0,.258-.583.115.115,0,0,0-.13-.129q-.259,0-.972.712-1.942,2.138-4.437,4.568t-4.052,3.79l-1.49,1.3q-2.526,1.945-3.888,1.944-1.425,0-1.425-2.2a14.424,14.424,0,0,1,.615-3.37,30.053,30.053,0,0,1,.939-3.046,42.714,42.714,0,0,1,3.726-7.061,43.784,43.784,0,0,1,5.281-6.577,24.628,24.628,0,0,1,7.1-5.088,19.181,19.181,0,0,1,8.391-1.942q3.626,0,3.629,1.1,0,.649-1.62.649-5.963,0-11.177,5.085a42.106,42.106,0,0,0-8.458,11.7,7.163,7.163,0,0,0-.906,3.046c0,.476.15.713.454.713a3.464,3.464,0,0,0,2.009-1.1q.777-.712,2.105-1.878t4.308-4.469a43.337,43.337,0,0,0,4.732-6.157,7.881,7.881,0,0,1,.808-1.232,12.579,12.579,0,0,1,2.105-1.911,5.091,5.091,0,0,1,3.111-1.2c.561,0,.842.152.842.454a1.119,1.119,0,0,1-.2.454q-.26.518-1.457,2.592t-2.236,3.919q-1.037,1.848-2.2,4.018t-1.847,3.725a6.909,6.909,0,0,0-.679,2.075c0,.259.108.39.323.39q.974,0,4.732-3.759,2.85-2.979,6.672-7.323a.535.535,0,0,1,.325-.193c.086,0,.13.086.13.258a3.716,3.716,0,0,1-.972,2.4q-6.35,7.065-10.756,11.082m16-34.407a18.5,18.5,0,0,1-4.179,3.53,19.849,19.849,0,0,1-3.984,2.042l-1.491.519c-.476,0-.712-.087-.712-.26a1.238,1.238,0,0,1,.259-.583,20.417,20.417,0,0,0,1.944-1.945q1.295-1.426,2.268-2.525l.972-1.167a1.369,1.369,0,0,1,1.231-.584h3.176c.517,0,.777.152.777.455a.748.748,0,0,1-.26.518" transform="translate(-1400.166 -715.478)"/><path class="b" d="M1460.227,788.5a47.679,47.679,0,0,1-6.577,5.217q-3.662,2.427-6.188,2.429-2.981,0-2.982-4.6,0-4.863,3.435-10.79a35.783,35.783,0,0,1,8.715-10.143q5.28-4.207,10.011-4.209,2.528,0,2.528,1.878,0,3.241-4.212,7.323a19.409,19.409,0,0,1-1.685,1.36,4.089,4.089,0,0,1-1.815.972.286.286,0,0,1-.324-.326l.194-.58q2.591-4.6,2.591-7c0-.864-.282-1.3-.841-1.3q-2.01,0-5.086,3.921a43.167,43.167,0,0,0-5.346,8.942q-2.271,5.021-2.269,7.937,0,2.333,1.685,2.332,2.916,0,7.322-4.212,3.434-3.175,9.85-10.5a.533.533,0,0,1,.324-.194c.085,0,.129.086.129.259a3.721,3.721,0,0,1-.972,2.4q-4.795,5.314-8.488,8.878" transform="translate(-1397.374 -714.156)"/><path class="b" d="M1468.6,789.821q-7.581,7.127-9.72,7.127c-.733,0-1.1-.5-1.1-1.491a12.788,12.788,0,0,1,1.166-4.342,49.982,49.982,0,0,1,2.334-4.987l1.166-2.073q4.923-8.617,7.45-12.376a10.11,10.11,0,0,1,2.82-2.754,5.913,5.913,0,0,1,3.207-1.133c.346,0,.519.152.519.452a3.6,3.6,0,0,1-.453,1.232q-.777,1.426-3.822,6.8t-3.629,6.481q-2.657,4.662-2.657,6.219,0,.584.39.585.647,0,4.146-3.24,2.724-2.724,7.194-7.841a.524.524,0,0,1,.323-.194c.086,0,.13.086.13.258a3.722,3.722,0,0,1-.972,2.4q-4.795,5.314-8.488,8.879m8.618-25.726q-1.622,0-1.619-1.944a6.179,6.179,0,0,1,1.359-3.661,3.781,3.781,0,0,1,2.982-1.846q1.943,0,1.944,2.2a5.366,5.366,0,0,1-1.491,3.531,4.235,4.235,0,0,1-3.175,1.717" transform="translate(-1395.572 -715.478)"/><path class="b" d="M1480.45,788.727q2.722-2.722,7.194-7.841a.528.528,0,0,1,.322-.194c.086,0,.131.086.131.259a3.719,3.719,0,0,1-.973,2.4q-4.795,5.314-8.488,8.878-8.1,7.646-10.3,7.646c-.647,0-.971-.452-.971-1.36a8.3,8.3,0,0,1,.162-1.555,10.713,10.713,0,0,1,.55-1.846c.259-.67.487-1.232.68-1.685s.476-1.1.843-1.944.617-1.413.745-1.717q1.814-4.081,11.146-21.512,12.765-23.264,23.457-28.578a6.9,6.9,0,0,1,3.11-.776q1.812,0,1.813,1.684a17.37,17.37,0,0,1-2.657,8.52,41.715,41.715,0,0,1-6.478,8.522,83.881,83.881,0,0,1-7.484,6.8,49.706,49.706,0,0,1-6.317,4.406,1.477,1.477,0,0,0-.713.583q-2.851,4.6-5.573,9.883t-4.082,8.326l-1.295,2.981a5.325,5.325,0,0,0-.326,1.294c0,.391.152.584.454.584q1.3,0,5.054-3.758m6.934-21.772a48.168,48.168,0,0,0,8.262-7.354,43.025,43.025,0,0,0,5.571-7.583,49.6,49.6,0,0,0,2.884-5.992,11.89,11.89,0,0,0,.972-3.629c0-.43-.152-.648-.454-.648a3.539,3.539,0,0,0-2.2,1.3,47.783,47.783,0,0,0-5.573,7.128q-3.11,4.664-5.021,8t-4.957,8.909a1.158,1.158,0,0,0,.518-.129" transform="translate(-1394.273 -717.884)"/><path class="b" d="M1435.657,734.212l-.116-.8h-.037a2.411,2.411,0,0,1-.787.694,2.1,2.1,0,0,1-.955.2,1.644,1.644,0,0,1-1.164-.385,1.367,1.367,0,0,1-.416-1.061,1.311,1.311,0,0,1,.619-1.154,3.374,3.374,0,0,1,1.792-.435l.966-.027v-.337a1.716,1.716,0,0,0-.294-1.091,1.135,1.135,0,0,0-.948-.369,3.151,3.151,0,0,0-1.463.393l-.173-.4a3.9,3.9,0,0,1,1.653-.392,1.654,1.654,0,0,1,1.25.433,1.912,1.912,0,0,1,.412,1.356v3.378Zm-1.868-.328a1.614,1.614,0,0,0,1.752-1.757v-.5l-.888.036a3.359,3.359,0,0,0-1.525.335.963.963,0,0,0-.457.88.95.95,0,0,0,.293.742,1.192,1.192,0,0,0,.824.262" transform="translate(-1399.041 -719.219)"/><path class="b" d="M1439.983,732.891a1.211,1.211,0,0,1-.518,1.049,2.538,2.538,0,0,1-1.473.366,3.537,3.537,0,0,1-1.616-.312v-.5a3.569,3.569,0,0,0,1.616.383,2.128,2.128,0,0,0,1.142-.249.759.759,0,0,0,.391-.665.807.807,0,0,0-.311-.644,3.384,3.384,0,0,0-1.021-.514,6.036,6.036,0,0,1-1.07-.474,1.479,1.479,0,0,1-.463-.45,1.116,1.116,0,0,1-.158-.61,1.045,1.045,0,0,1,.478-.9,2.322,2.322,0,0,1,1.34-.332,3.982,3.982,0,0,1,1.559.308l-.172.422a3.639,3.639,0,0,0-1.387-.31,2.01,2.01,0,0,0-.987.206.631.631,0,0,0-.365.57.79.79,0,0,0,.284.636,3.945,3.945,0,0,0,1.1.534,5.593,5.593,0,0,1,1,.444,1.468,1.468,0,0,1,.469.452,1.1,1.1,0,0,1,.157.594" transform="translate(-1398.472 -719.22)"/><path class="b" d="M1443.7,732.891a1.211,1.211,0,0,1-.518,1.049,2.541,2.541,0,0,1-1.473.366,3.537,3.537,0,0,1-1.616-.312v-.5a3.569,3.569,0,0,0,1.616.383,2.128,2.128,0,0,0,1.142-.249.759.759,0,0,0,.391-.665.807.807,0,0,0-.311-.644,3.381,3.381,0,0,0-1.021-.514,6.04,6.04,0,0,1-1.07-.474,1.479,1.479,0,0,1-.463-.45,1.116,1.116,0,0,1-.158-.61,1.045,1.045,0,0,1,.478-.9,2.322,2.322,0,0,1,1.34-.332,3.982,3.982,0,0,1,1.559.308l-.173.422a3.638,3.638,0,0,0-1.386-.31,2.009,2.009,0,0,0-.987.206.631.631,0,0,0-.365.57.79.79,0,0,0,.284.636,3.948,3.948,0,0,0,1.1.534,5.6,5.6,0,0,1,1,.444,1.468,1.468,0,0,1,.469.452,1.1,1.1,0,0,1,.157.594" transform="translate(-1397.969 -719.22)"/><path class="b" d="M1444.152,727.935c0-.3.1-.448.293-.448a.264.264,0,0,1,.227.116.584.584,0,0,1,.081.333.6.6,0,0,1-.081.332.261.261,0,0,1-.227.122c-.2,0-.293-.151-.293-.453m.527,6.487h-.462v-5.078h.462Z" transform="translate(-1397.419 -719.43)"/><path class="b" d="M1449.444,734.213V730.92a1.609,1.609,0,0,0-.321-1.115,1.306,1.306,0,0,0-1-.349,1.735,1.735,0,0,0-1.335.461,2.17,2.17,0,0,0-.421,1.491v2.8h-.463v-5.078h.393l.088.7h.028a1.908,1.908,0,0,1,1.761-.794q1.729,0,1.728,1.854v3.321Z" transform="translate(-1397.181 -719.22)"/><path class="b" d="M1453.792,734.212l-.117-.8h-.038a2.41,2.41,0,0,1-.787.694,2.1,2.1,0,0,1-.955.2,1.644,1.644,0,0,1-1.164-.385,1.367,1.367,0,0,1-.416-1.061,1.311,1.311,0,0,1,.619-1.154,3.375,3.375,0,0,1,1.792-.435l.967-.027v-.337a1.716,1.716,0,0,0-.294-1.091,1.135,1.135,0,0,0-.948-.369,3.152,3.152,0,0,0-1.463.393l-.173-.4a3.9,3.9,0,0,1,1.653-.392,1.654,1.654,0,0,1,1.25.433,1.912,1.912,0,0,1,.412,1.356v3.378Zm-1.869-.328a1.615,1.615,0,0,0,1.752-1.757v-.5l-.888.036a3.36,3.36,0,0,0-1.525.335.963.963,0,0,0-.457.88.95.95,0,0,0,.293.742,1.192,1.192,0,0,0,.824.262" transform="translate(-1396.583 -719.219)"/><path class="b" d="M1456.344,734.03a3.528,3.528,0,0,0,.766-.074v.372a2.4,2.4,0,0,1-.776.114,1.257,1.257,0,0,1-.992-.361,1.666,1.666,0,0,1-.319-1.13v-3.279h-.753V729.4l.753-.209.234-1.15h.238v1.229h1.49v.4h-1.49v3.212a1.459,1.459,0,0,0,.205.865.748.748,0,0,0,.645.281" transform="translate(-1396.048 -719.355)"/><path class="b" d="M1457.935,729.123v3.287a1.613,1.613,0,0,0,.322,1.116,1.3,1.3,0,0,0,1,.346,1.75,1.75,0,0,0,1.334-.457,2.143,2.143,0,0,0,.427-1.49v-2.8h.458V734.2h-.392l-.085-.7h-.026a1.91,1.91,0,0,1-1.761.795q-1.736,0-1.734-1.855v-3.317Z" transform="translate(-1395.613 -719.209)"/><path class="b" d="M1464.284,729.036a4.036,4.036,0,0,1,.692.066l-.089.444a2.69,2.69,0,0,0-.659-.079,1.283,1.283,0,0,0-1.066.55,2.257,2.257,0,0,0-.414,1.392v2.8h-.463v-5.077h.393l.047.916h.033a2.131,2.131,0,0,1,.668-.787,1.556,1.556,0,0,1,.86-.228" transform="translate(-1394.961 -719.22)"/><path class="b" d="M1468.482,734.212l-.116-.8h-.037a2.411,2.411,0,0,1-.787.694,2.1,2.1,0,0,1-.955.2,1.644,1.644,0,0,1-1.164-.385,1.367,1.367,0,0,1-.416-1.061,1.311,1.311,0,0,1,.619-1.154,3.371,3.371,0,0,1,1.792-.435l.966-.027v-.337a1.716,1.716,0,0,0-.294-1.091,1.135,1.135,0,0,0-.948-.369,3.152,3.152,0,0,0-1.463.393l-.173-.4a3.9,3.9,0,0,1,1.653-.392,1.655,1.655,0,0,1,1.25.433,1.913,1.913,0,0,1,.412,1.356v3.378Zm-1.868-.328a1.614,1.614,0,0,0,1.752-1.757v-.5l-.888.036a3.36,3.36,0,0,0-1.525.335.963.963,0,0,0-.457.88.95.95,0,0,0,.293.742,1.191,1.191,0,0,0,.824.262" transform="translate(-1394.592 -719.219)"/></svg>