<svg xmlns="http://www.w3.org/2000/svg" xmlns:xlink="http://www.w3.org/1999/xlink" width="143.978" height="113.966" viewBox="0 0 143.978 113.966"><defs><style>.a{fill:none;}.b{clip-path:url(#a);}.c{fill:url(#b);}.d{fill:#fff;}.e{clip-path:url(#c);}.f{fill:url(#d);}.g{clip-path:url(#e);}.h{fill:url(#f);}.i{clip-path:url(#g);}.j{fill:url(#h);}.k{clip-path:url(#i);}.l{fill:url(#j);}.m{clip-path:url(#k);}.n{fill:url(#l);}.o{fill:#ef0732;}</style><clipPath id="a"><path class="a" d="M1870.9,740.173v12.8h8.588V780.93a28.063,28.063,0,1,1-56.125,0V752.976h8.59v-12.8H1810.5V780.93a40.927,40.927,0,0,0,81.854,0V740.173Z" transform="translate(-1810.5 -740.173)"/></clipPath><linearGradient id="b" x1="-17.526" y1="1.229" x2="-17.516" y2="1.229" gradientUnits="objectBoundingBox"><stop offset="0" stop-color="#fff"/><stop offset="1" stop-color="#d2dcf7"/></linearGradient><clipPath id="c"><path class="a" d="M1896.76,794.48a49.4,49.4,0,0,1-89.1.931.68.68,0,0,0-1.219.6,50.758,50.758,0,0,0,91.552-.956.68.68,0,0,0-1.232-.577" transform="translate(-1806.371 -794.093)"/></clipPath><linearGradient id="d" x1="-21.335" y1="0.615" x2="-21.323" y2="0.615" gradientUnits="objectBoundingBox"><stop offset="0" stop-color="#7d0754"/><stop offset="1" stop-color="#ef0732"/></linearGradient><clipPath id="e"><path class="a" d="M1801.837,720.392h0v43.534a.679.679,0,1,0,1.358,0V721.752h98.812v17.684a.68.68,0,1,0,1.36,0V720.392Z" transform="translate(-1801.837 -720.392)"/></clipPath><linearGradient id="f" x1="-18.71" y1="1.666" x2="-18.699" y2="1.666" xlink:href="#d"/><clipPath id="g"><path class="a" d="M1788.42,809.917q0-1.3,3.694-8.945,4.016-8.486,14.253-26.112a6.885,6.885,0,0,1,.2,1.684q0,5.962-4.859,15.489t-8.618,13.931q-3.565,4.214-4.474,4.211c-.127,0-.192-.086-.192-.258m35.7-63.212a35.946,35.946,0,0,0-8.878,7.744,142.143,142.143,0,0,0-11.016,15.941h-1.943c-.476,0-.712.129-.712.388,0,.175.13.325.388.453l1.556.39q-2.4,3.889-4.764,8.133t-3.6,6.512q-1.232,2.267-1.231,2.332-12.376,21.837-12.377,27.8c0,.818.305,1.229.908,1.229a4.755,4.755,0,0,0,2.17-.939,29.453,29.453,0,0,0,4.311-3.856,76.444,76.444,0,0,0,6.219-7.386,80.026,80.026,0,0,0,9.492-16.231q3.661-8.459,3.662-14.48a13.96,13.96,0,0,0-.1-1.429c-.065-.6-.1-.971-.1-1.1,0-.3.3-.455.907-.455h4.6a1.425,1.425,0,0,0,.745-.387q.486-.388.486-.712c0-.173-.3-.26-.906-.26h-4.991q11.017-18.6,15.422-21.9a5.53,5.53,0,0,1,2.592-1.425c.259,0,.389.152.389.453q0,1.814-3.76,7.323a1.106,1.106,0,0,0-.193.518c0,.216.086.323.258.323a2.1,2.1,0,0,0,.519-.128,18.356,18.356,0,0,0,5.216-3.986q3.076-3.076,3.078-6.057c0-.908-.517-1.362-1.556-1.362q-2.4,0-6.8,2.557" transform="translate(-1781.55 -744.147)"/></clipPath><linearGradient id="h" x1="-29.123" y1="0.987" x2="-29.107" y2="0.987" xlink:href="#d"/><clipPath id="i"><path class="a" d="M1872.849,756.642a1.366,1.366,0,0,0-1.231.586l-.972,1.165q-.973,1.1-2.269,2.527a19.971,19.971,0,0,1-1.944,1.944,1.239,1.239,0,0,0-.259.583c0,.173.238.261.712.261l1.491-.519a19.892,19.892,0,0,0,3.983-2.042,18.481,18.481,0,0,0,4.181-3.53.748.748,0,0,0,.259-.519c0-.3-.259-.455-.777-.455Z" transform="translate(-1866.174 -756.642)"/></clipPath><linearGradient id="j" x1="-174.926" y1="6.67" x2="-174.833" y2="6.67" xlink:href="#d"/><clipPath id="k"><path class="a" d="M1894.05,758.174q1.909-3.335,5.021-8a47.657,47.657,0,0,1,5.572-7.128,3.542,3.542,0,0,1,2.2-1.3c.3,0,.453.217.453.647a11.856,11.856,0,0,1-.972,3.629,49.671,49.671,0,0,1-2.883,5.992,43.129,43.129,0,0,1-5.572,7.584,48.019,48.019,0,0,1-8.262,7.353,1.153,1.153,0,0,1-.518.131q3.042-5.573,4.957-8.911m13.121-18.5q-10.693,5.314-23.457,28.577-5.88,10.986-8.774,16.668c-1.376,1.509-2.589,2.795-3.6,3.809q-3.5,3.243-4.146,3.242c-.26,0-.388-.2-.388-.586q0-1.553,2.654-6.221.586-1.1,3.63-6.478t3.823-6.8a3.62,3.62,0,0,0,.452-1.231c0-.3-.172-.453-.517-.453a5.909,5.909,0,0,0-3.208,1.134,10.068,10.068,0,0,0-2.819,2.753q-2.518,3.742-7.411,12.3c-.815.874-1.583,1.678-2.243,2.34q-3.114,3.109-4.213,3.11c-.26,0-.388-.194-.388-.581q0-1.945,4.925-9.525a54.69,54.69,0,0,0,3.24-5.931,35.953,35.953,0,0,0,1.49-3.564,5.391,5.391,0,0,0,.259-1.133q0-.906-.972-.906a3.591,3.591,0,0,0-1.359.324,36.206,36.206,0,0,0-7.744,5.8q-4.7,4.311-6.676,6.448t-3.207,3.564c-.3.3-.518.453-.646.453-.089,0-.131-.065-.131-.2a5,5,0,0,1,.68-1.555q.681-1.228,1.685-2.915t1.329-2.268q3.823-7.065,3.822-8.748a.8.8,0,0,0-.907-.906,2.866,2.866,0,0,0-1.3.324,36.852,36.852,0,0,0-7.776,5.8q-4.729,4.311-6.707,6.448t-3.208,3.564c-.3.3-.518.453-.645.453-.09,0-.132-.042-.132-.129a1.466,1.466,0,0,1,.2-.584q.194-.388.713-1.326t1.328-2.336q.807-1.39,1.391-2.494.974-1.877,2.366-4.114t2.137-3.5a4.748,4.748,0,0,0,.747-1.652c0-.3-.174-.453-.519-.453a6.39,6.39,0,0,0-4.6,2.3,23.454,23.454,0,0,0-3.757,5.214l-4.479,7.944c-.84.912-1.646,1.779-2.389,2.554q-3.757,3.759-4.731,3.76c-.217,0-.322-.132-.322-.391a6.88,6.88,0,0,1,.679-2.075q.681-1.555,1.849-3.725t2.2-4.018q1.036-1.85,2.235-3.919t1.459-2.592a1.137,1.137,0,0,0,.2-.454c0-.3-.283-.454-.844-.454a5.1,5.1,0,0,0-3.111,1.2,12.612,12.612,0,0,0-2.105,1.912,7.806,7.806,0,0,0-.81,1.232,43.165,43.165,0,0,1-4.729,6.156q-2.982,3.3-4.309,4.471t-2.105,1.878a3.467,3.467,0,0,1-2.009,1.1q-.454,0-.455-.713a7.183,7.183,0,0,1,.907-3.047,42.112,42.112,0,0,1,8.458-11.7q5.214-5.088,11.176-5.085,1.62,0,1.62-.649,0-1.1-3.627-1.1a19.184,19.184,0,0,0-8.392,1.943,24.64,24.64,0,0,0-7.1,5.087,43.708,43.708,0,0,0-5.281,6.578,42.694,42.694,0,0,0-3.726,7.061,30.089,30.089,0,0,0-.939,3.047,14.412,14.412,0,0,0-.615,3.367q0,2.206,1.425,2.205,1.359,0,3.888-1.943l1.489-1.3q1.557-1.358,4.052-3.789t4.438-4.567c.475-.477.8-.713.972-.713a.115.115,0,0,1,.131.129,1.816,1.816,0,0,1-.26.584l-1.166,2.008a43.071,43.071,0,0,0-2.3,4.664,11.45,11.45,0,0,0-1.135,3.955c0,.688.3,1.036.907,1.036q2.008,0,7.387-4.924c1.37-1.249,2.893-2.74,4.546-4.431l-.594,1.062q-1.23,2.2-2.462,4.7a11.357,11.357,0,0,0-1.232,3.078c0,.3.281.453.842.453q2.788,0,5.833-4.212l2.656-3.434q2.589-3.369,6.74-7.874a47.625,47.625,0,0,1,7.194-6.64l.906-.391c.173,0,.258.108.258.324a9.115,9.115,0,0,1-1.2,2.69q-1.2,2.172-2.979,5.184t-2.236,3.921l-1.231,2.2q-1.233,2.2-2.462,4.7a11.277,11.277,0,0,0-1.232,3.078c0,.344.281.518.843.518q2.852,0,5.831-4.276l2.657-3.434q2.655-3.369,6.8-7.874a49.935,49.935,0,0,1,7.125-6.64l.91-.326a.288.288,0,0,1,.323.326,7.068,7.068,0,0,1-1.166,2.4q-.131.261-2.171,3.627t-3.369,5.7q-1.328,2.332-2.657,5.183a11.613,11.613,0,0,0-1.33,4.083q0,1.228,1.039,1.23,2.4,0,10.043-7.128.949-.916,1.973-1.95c-.485,1-.97,2.061-1.455,3.245a12.77,12.77,0,0,0-1.167,4.342c0,.994.369,1.49,1.1,1.49q2.139,0,9.72-7.128c1.111-1.071,2.307-2.278,3.567-3.587-.206.434-.383.812-.522,1.126s-.377.874-.746,1.716-.648,1.491-.842,1.943-.422,1.016-.681,1.685a10.782,10.782,0,0,0-.55,1.848,8.29,8.29,0,0,0-.162,1.556q0,1.361.971,1.359,2.2,0,10.3-7.646.948-.916,1.973-1.95c-.486,1-.971,2.061-1.456,3.245a12.748,12.748,0,0,0-1.165,4.342q0,1.49,1.1,1.49,2.136,0,9.719-7.128c.648-.623,1.324-1.3,2.021-2-.064.152-.146.3-.208.445a29.534,29.534,0,0,0-.938,3.047,14.4,14.4,0,0,0-.617,3.367q0,2.206,1.427,2.205,1.361,0,3.887-1.943l1.49-1.3q1.555-1.358,4.052-3.789t4.438-4.567c.475-.477.8-.713.972-.713a.114.114,0,0,1,.128.129,1.781,1.781,0,0,1-.259.584l-1.166,2.008a42.892,42.892,0,0,0-2.3,4.664,11.45,11.45,0,0,0-1.135,3.955c0,.688.3,1.036.907,1.036q2.008,0,7.385-4.924,4.41-4.015,10.758-11.082a3.722,3.722,0,0,0,.972-2.4c0-.17-.044-.259-.132-.259a.54.54,0,0,0-.321.194q-3.827,4.343-6.675,7.323-3.759,3.759-4.731,3.76c-.217,0-.323-.132-.323-.391a6.918,6.918,0,0,1,.679-2.075q.683-1.555,1.847-3.725t2.2-4.018q1.035-1.85,2.233-3.919t1.458-2.592a1.1,1.1,0,0,0,.194-.454c0-.3-.279-.454-.84-.454a5.086,5.086,0,0,0-3.11,1.2,12.572,12.572,0,0,0-2.108,1.912,8.067,8.067,0,0,0-.809,1.232,43.056,43.056,0,0,1-4.731,6.156q-2.979,3.3-4.307,4.471t-2.106,1.878a3.464,3.464,0,0,1-2.009,1.1c-.3,0-.453-.237-.453-.713a7.137,7.137,0,0,1,.907-3.047,42.036,42.036,0,0,1,8.455-11.7q5.216-5.088,11.177-5.085,1.618,0,1.619-.649,0-1.1-3.628-1.1a19.177,19.177,0,0,0-8.389,1.943,24.638,24.638,0,0,0-7.1,5.087,43.754,43.754,0,0,0-5.279,6.578c-.691,1.059-1.315,2.136-1.9,3.223-.656.7-1.279,1.346-1.829,1.9q-3.5,3.243-4.147,3.242c-.259,0-.387-.2-.387-.586q0-1.553,2.656-6.221.584-1.1,3.629-6.478t3.823-6.8a3.617,3.617,0,0,0,.452-1.231c0-.3-.174-.453-.518-.453a5.915,5.915,0,0,0-3.208,1.134,10.1,10.1,0,0,0-2.82,2.753q-2.514,3.742-7.408,12.3c-.817.874-1.583,1.678-2.245,2.34q-3.758,3.761-5.053,3.756c-.3,0-.454-.192-.454-.583a5.25,5.25,0,0,1,.323-1.293l1.3-2.981q1.361-3.047,4.083-8.327t5.572-9.883a1.5,1.5,0,0,1,.713-.583,49.562,49.562,0,0,0,6.317-4.4q1.807-1.439,3.651-3.117a5.944,5.944,0,0,0-1.09,3.245q0,1.942,1.618,1.944a4.241,4.241,0,0,0,3.176-1.717,5.36,5.36,0,0,0,1.49-3.533q0-2.2-1.943-2.2a2.81,2.81,0,0,0-1.125.267c.568-.549,1.136-1.109,1.708-1.692a41.6,41.6,0,0,0,6.478-8.522,17.356,17.356,0,0,0,2.658-8.519c0-1.121-.606-1.684-1.814-1.684a6.906,6.906,0,0,0-3.11.776" transform="translate(-1801.295 -738.897)"/></clipPath><linearGradient id="l" x1="-15.343" y1="1.075" x2="-15.334" y2="1.075" xlink:href="#d"/></defs><g transform="translate(32.874 22.462)"><g class="b"><rect class="c" width="115.639" height="115.638" transform="translate(-40.842 40.842) rotate(-45)"/></g></g><rect class="d" width="9.078" height="39.386" transform="translate(21.105 44.891)"/><g transform="translate(28.185 83.691)"><g class="e"><rect class="f" width="96.687" height="55.015" transform="translate(-8.306 2.42) rotate(-16.422)"/></g></g><g transform="translate(23.037)"><g class="g"><rect class="h" width="109.888" height="71.114" transform="matrix(0.959, -0.283, 0.283, 0.959, -11.99, 3.534)"/></g></g><g transform="translate(0 26.975)"><g class="i"><rect class="j" width="69.627" height="84.88" transform="translate(-19.926 5.873) rotate(-16.422)"/></g></g><g transform="translate(96.094 41.163)"><g class="k"><rect class="l" width="12.19" height="9.781" transform="translate(-1.916 0.565) rotate(-16.422)"/></g></g><g transform="translate(22.421 21.013)"><g class="m"><rect class="n" width="133.836" height="92.851" transform="matrix(0.959, -0.283, 0.283, 0.959, -16.535, 4.874)"/></g></g><path class="o" d="M1831.924,734.212l-.116-.8h-.037a2.4,2.4,0,0,1-.787.694,2.1,2.1,0,0,1-.955.2,1.644,1.644,0,0,1-1.164-.385,1.368,1.368,0,0,1-.416-1.061,1.313,1.313,0,0,1,.618-1.154,3.381,3.381,0,0,1,1.793-.435l.966-.027v-.337a1.716,1.716,0,0,0-.294-1.091,1.135,1.135,0,0,0-.948-.369,3.163,3.163,0,0,0-1.464.393l-.171-.4a3.9,3.9,0,0,1,1.653-.392,1.653,1.653,0,0,1,1.25.433,1.908,1.908,0,0,1,.413,1.356v3.378Zm-1.868-.328a1.616,1.616,0,0,0,1.752-1.757v-.5l-.887.036a3.364,3.364,0,0,0-1.526.335.962.962,0,0,0-.456.88.949.949,0,0,0,.292.742,1.192,1.192,0,0,0,.824.262" transform="translate(-1775.193 -719.219)"/><path class="o" d="M1836.25,732.891a1.21,1.21,0,0,1-.519,1.049,2.535,2.535,0,0,1-1.472.366,3.534,3.534,0,0,1-1.616-.312v-.5a3.565,3.565,0,0,0,1.616.383,2.128,2.128,0,0,0,1.142-.249.758.758,0,0,0,.389-.665.809.809,0,0,0-.31-.644,3.4,3.4,0,0,0-1.021-.514,6.038,6.038,0,0,1-1.07-.474,1.5,1.5,0,0,1-.464-.45,1.124,1.124,0,0,1-.157-.61,1.045,1.045,0,0,1,.478-.9,2.321,2.321,0,0,1,1.34-.332,3.982,3.982,0,0,1,1.559.308l-.173.422a3.638,3.638,0,0,0-1.386-.31,2.006,2.006,0,0,0-.987.206.631.631,0,0,0-.365.57.789.789,0,0,0,.283.636,3.965,3.965,0,0,0,1.1.534,5.593,5.593,0,0,1,1,.444,1.468,1.468,0,0,1,.468.452,1.093,1.093,0,0,1,.158.594" transform="translate(-1774.625 -719.22)"/><path class="o" d="M1839.965,732.891a1.21,1.21,0,0,1-.519,1.049,2.534,2.534,0,0,1-1.472.366,3.532,3.532,0,0,1-1.616-.312v-.5a3.565,3.565,0,0,0,1.616.383,2.127,2.127,0,0,0,1.142-.249.758.758,0,0,0,.39-.665.81.81,0,0,0-.31-.644,3.394,3.394,0,0,0-1.021-.514,6.042,6.042,0,0,1-1.07-.474,1.492,1.492,0,0,1-.464-.45,1.124,1.124,0,0,1-.157-.61,1.045,1.045,0,0,1,.478-.9,2.322,2.322,0,0,1,1.34-.332,3.982,3.982,0,0,1,1.559.308l-.173.422a3.638,3.638,0,0,0-1.386-.31,2.005,2.005,0,0,0-.987.206.631.631,0,0,0-.365.57.789.789,0,0,0,.283.636,3.965,3.965,0,0,0,1.1.534,5.581,5.581,0,0,1,1,.444,1.463,1.463,0,0,1,.468.452,1.091,1.091,0,0,1,.158.594" transform="translate(-1774.121 -719.22)"/><path class="o" d="M1840.417,727.935c0-.3.1-.448.294-.448a.263.263,0,0,1,.227.116.574.574,0,0,1,.082.333.591.591,0,0,1-.082.332.26.26,0,0,1-.227.122q-.294,0-.294-.453m.528,6.487h-.462v-5.078h.462Z" transform="translate(-1773.571 -719.43)"/><path class="o" d="M1845.71,734.213V730.92a1.6,1.6,0,0,0-.323-1.115,1.3,1.3,0,0,0-1-.349,1.734,1.734,0,0,0-1.334.461,2.169,2.169,0,0,0-.422,1.491v2.8h-.463v-5.078h.394l.087.7h.028a1.908,1.908,0,0,1,1.76-.794q1.73,0,1.73,1.854v3.321Z" transform="translate(-1773.333 -719.22)"/><path class="o" d="M1850.057,734.212l-.117-.8h-.036a2.412,2.412,0,0,1-.787.694,2.1,2.1,0,0,1-.955.2,1.644,1.644,0,0,1-1.164-.385,1.367,1.367,0,0,1-.416-1.061,1.313,1.313,0,0,1,.618-1.154,3.381,3.381,0,0,1,1.792-.435l.968-.027v-.337a1.716,1.716,0,0,0-.294-1.091,1.135,1.135,0,0,0-.948-.369,3.153,3.153,0,0,0-1.463.393l-.172-.4a3.9,3.9,0,0,1,1.653-.392,1.654,1.654,0,0,1,1.25.433,1.913,1.913,0,0,1,.412,1.356v3.378Zm-1.868-.328a1.615,1.615,0,0,0,1.751-1.757v-.5l-.887.036a3.359,3.359,0,0,0-1.525.335.963.963,0,0,0-.457.88.949.949,0,0,0,.293.742,1.192,1.192,0,0,0,.824.262" transform="translate(-1772.735 -719.219)"/><path class="o" d="M1852.61,734.03a3.533,3.533,0,0,0,.765-.074v.372a2.4,2.4,0,0,1-.776.114,1.255,1.255,0,0,1-.992-.361,1.666,1.666,0,0,1-.321-1.13v-3.279h-.75V729.4l.75-.209.235-1.15h.239v1.229h1.49v.4h-1.49v3.212a1.458,1.458,0,0,0,.205.865.746.746,0,0,0,.645.281" transform="translate(-1772.2 -719.355)"/><path class="o" d="M1854.2,729.123v3.287a1.612,1.612,0,0,0,.323,1.116,1.3,1.3,0,0,0,1,.346,1.751,1.751,0,0,0,1.334-.457,2.143,2.143,0,0,0,.426-1.49v-2.8h.459V734.2h-.393l-.084-.7h-.027a1.907,1.907,0,0,1-1.76.795q-1.736,0-1.735-1.855v-3.317Z" transform="translate(-1771.765 -719.209)"/><path class="o" d="M1860.551,729.036a4.038,4.038,0,0,1,.692.066l-.089.444a2.692,2.692,0,0,0-.659-.079,1.282,1.282,0,0,0-1.066.55,2.257,2.257,0,0,0-.415,1.392v2.8h-.463v-5.077h.393l.047.916h.033a2.132,2.132,0,0,1,.668-.787,1.558,1.558,0,0,1,.86-.228" transform="translate(-1771.113 -719.22)"/><path class="o" d="M1864.749,734.212l-.116-.8h-.038a2.4,2.4,0,0,1-.787.694,2.1,2.1,0,0,1-.955.2,1.644,1.644,0,0,1-1.164-.385,1.367,1.367,0,0,1-.416-1.061,1.311,1.311,0,0,1,.619-1.154,3.374,3.374,0,0,1,1.792-.435l.966-.027v-.337a1.716,1.716,0,0,0-.294-1.091,1.135,1.135,0,0,0-.948-.369,3.155,3.155,0,0,0-1.463.393l-.173-.4a3.9,3.9,0,0,1,1.653-.392,1.653,1.653,0,0,1,1.25.433,1.907,1.907,0,0,1,.412,1.356v3.378Zm-1.868-.328a1.614,1.614,0,0,0,1.752-1.757v-.5l-.887.036a3.365,3.365,0,0,0-1.526.335.962.962,0,0,0-.455.88.949.949,0,0,0,.292.742,1.192,1.192,0,0,0,.824.262" transform="translate(-1770.744 -719.219)"/></svg>