<svg xmlns="http://www.w3.org/2000/svg" xmlns:xlink="http://www.w3.org/1999/xlink" width="113.964" height="118" viewBox="0 0 113.964 118"><defs><style>.a{fill:none;}.b{clip-path:url(#a);}.c{fill:url(#b);}.d{fill:#7d0754;}.e{clip-path:url(#c);}.f{fill:url(#d);}.g{clip-path:url(#e);}.h{fill:url(#f);}.i{clip-path:url(#g);}.j{fill:url(#h);}</style><clipPath id="a"><path class="a" d="M2003.592,740.562v13.053h8.759v28.5a28.613,28.613,0,1,1-57.227,0v-28.5h8.757V740.562h-21.875v41.556a41.732,41.732,0,0,0,83.464,0V740.562Z" transform="translate(-1942.006 -740.562)"/></clipPath><linearGradient id="b" x1="-18.455" y1="1.199" x2="-18.445" y2="1.199" gradientUnits="objectBoundingBox"><stop offset="0" stop-color="#fff"/><stop offset="1" stop-color="#d2dcf7"/></linearGradient><clipPath id="c"><path class="a" d="M1949.2,794.523a2.394,2.394,0,0,1,.327-1.173l2.671-4.692q2.606-4.754,6.288-10.134t5.769-6.682a2.122,2.122,0,0,1,1.173-.391c.653,0,.979.459.979,1.369a19.258,19.258,0,0,1-1.7,6.193l-.781,1.694a36.639,36.639,0,0,1-2.118,4.2q-1.4,2.441-3.062,4.886a19.974,19.974,0,0,1-3.75,4.172,6.366,6.366,0,0,1-3.974,1.726q-1.826,0-1.825-1.173m12.9-30.532a15.236,15.236,0,0,0-1.627,1.89q-.85,1.143-1.827,2.673t-1.692,2.8q-.721,1.267-1.5,2.67t-1.042,1.89c-.173.327-.3.578-.389.751q-5.282,9.711-14.728,26.2l-3.846,6.389q-3.844,6.452-7.657,13.715T1923.979,832q0,.588.652.588a4.371,4.371,0,0,0,2.7-1.6,25.888,25.888,0,0,0,2.933-3.521q1.337-1.923,2.833-4.462t2.021-3.521c.348-.653.631-1.174.846-1.564q2.284-4.757,6.127-11.8t5.6-9.645l.457-.261a1.485,1.485,0,0,1,.521.228,5.683,5.683,0,0,0,1.174.456,6.014,6.014,0,0,0,1.692.227,12.369,12.369,0,0,0,6.356-1.824,19.614,19.614,0,0,0,5.181-4.333,43.668,43.668,0,0,0,3.714-5.181,40.363,40.363,0,0,0,2.379-4.365,15.962,15.962,0,0,0,.749-1.827,22.982,22.982,0,0,0,2.019-8.339q0-4.17-2.541-4.172a5.251,5.251,0,0,0-2.507.782,14.207,14.207,0,0,0-2.478,1.726,30.849,30.849,0,0,0-2.247,2.216q-1.175,1.272-1.565,1.727a6.218,6.218,0,0,0-.587.784c-.175.175-.3.259-.391.259s-.131-.065-.131-.2a.547.547,0,0,1,.066-.258l1.107-2.153q1.043-2.085,2.119-4.692a11.887,11.887,0,0,0,1.074-3.517c0-.348-.152-.523-.457-.523a2.167,2.167,0,0,0-1.3.748" transform="translate(-1923.979 -763.242)"/></clipPath><linearGradient id="d" x1="-26.266" y1="1.23" x2="-26.252" y2="1.23" gradientUnits="objectBoundingBox"><stop offset="0" stop-color="#7d0754"/><stop offset="1" stop-color="#490754"/></linearGradient><clipPath id="e"><path class="a" d="M1984.506,758.412q1.92-3.357,5.05-8.05a48.263,48.263,0,0,1,5.6-7.169,3.573,3.573,0,0,1,2.218-1.3c.3,0,.457.219.457.651a11.928,11.928,0,0,1-.979,3.648,50.228,50.228,0,0,1-2.9,6.03,43.206,43.206,0,0,1-5.6,7.624,48.381,48.381,0,0,1-8.309,7.4,1.174,1.174,0,0,1-.522.131q3.063-5.607,4.986-8.961m13.2-18.607q-10.751,5.345-23.592,28.74-9.383,17.531-11.208,21.637-.2.456-.75,1.726t-.846,1.956q-.3.685-.685,1.694a11.1,11.1,0,0,0-.555,1.857,8.526,8.526,0,0,0-.162,1.565q0,1.369.978,1.368,2.216,0,10.361-7.688c.724-.7,1.488-1.46,2.272-2.258-.691,1.327-1.373,2.806-2.044,4.472a12.1,12.1,0,0,0-1.075,3.974c0,.782.305,1.174.912,1.174q1.957,0,7.039-4.823l1.434-1.238q1.37-1.237,3.974-3.877t5.02-5.444a.533.533,0,0,1,.325-.2c.086,0,.13.067.13.2l-2.021,3.453-1.172,2.218q-1.175,2.214-2.346,4.823a11.509,11.509,0,0,0-1.173,3.388q0,1.368.978,1.368,1.431,0,4.593-2.412a69.158,69.158,0,0,0,5.7-4.82q3.713-3.587,8.537-8.93a3.734,3.734,0,0,0,.979-2.412c0-.172-.044-.258-.131-.258a.523.523,0,0,0-.326.194c-.405.461-.773.873-1.155,1.308l5.456-6.393.26-.127c.129,0,.194.172.194.52l-.194,3.518a71.51,71.51,0,0,1-1.14,8.082,20.483,20.483,0,0,1-2.183,6.646l-.654,1.044a8.692,8.692,0,0,1-1.921,2.185,3.986,3.986,0,0,1-2.574,1.073q-1.629,0-1.63-1.955a9.629,9.629,0,0,1,1.466-4.561,12.425,12.425,0,0,1,3.1-3.845.369.369,0,0,0,.131-.262c0-.171-.109-.259-.326-.259a10.64,10.64,0,0,0-4.235,1.891q-4.17,3.061-4.171,6.841,0,3.717,4.758,3.718a11.876,11.876,0,0,0,3.943-.784,15.637,15.637,0,0,0,4.725-2.966,12.739,12.739,0,0,0,3.713-5.376q1.434-3.78,1.433-11.274a19.653,19.653,0,0,1,.458-4.4,13.075,13.075,0,0,1,1.042-3.1,9.933,9.933,0,0,1,1.336-1.955,10.265,10.265,0,0,1,1.044-1.077,1.728,1.728,0,0,1,.488-.291c.346-.175.521-.37.521-.588,0-.349-.218-.521-.653-.521a8.527,8.527,0,0,0-4.3,1.042,8.392,8.392,0,0,0-2.866,2.607q-1.043,1.76-8.472,10.1l-.587.715a1.77,1.77,0,0,0-.455,1.3c0,.3.107.456.325.456a.7.7,0,0,0,.361-.2c-1.742,1.936-3.247,3.547-4.466,4.765q-3.519,3.26-4.17,3.26c-.261,0-.393-.2-.393-.586q0-1.5,2.672-6.192.457-.782,3.618-6.287t4.073-7.138l.522-1.238c0-.347-.2-.521-.588-.521a6.355,6.355,0,0,0-5.541,3.194,53.728,53.728,0,0,1-5.863,7.82,80.637,80.637,0,0,1-9.319,9.839,4.349,4.349,0,0,1-2.021,1.174q-.392,0-.392-.458,0-1.172,4.3-9.055,1.564-2.938,4.1-7.009t2.672-4.334a1.6,1.6,0,0,0,.261-.717c0-.3-.219-.456-.653-.456a6.4,6.4,0,0,0-2.931,1.141,11.466,11.466,0,0,0-3.193,2.833,111.033,111.033,0,0,0-7.264,12.173c-.9.963-1.732,1.841-2.447,2.555q-3.781,3.783-5.083,3.782c-.3,0-.458-.2-.458-.587a5.266,5.266,0,0,1,.327-1.3l1.3-3q1.37-3.061,4.107-8.374t5.6-9.939a1.5,1.5,0,0,1,.718-.586,49.575,49.575,0,0,0,6.352-4.432,84.082,84.082,0,0,0,7.529-6.842,41.976,41.976,0,0,0,6.517-8.572,17.468,17.468,0,0,0,2.673-8.568c0-1.131-.611-1.7-1.826-1.7a6.963,6.963,0,0,0-3.128.782" transform="translate(-1959.904 -739.023)"/></clipPath><linearGradient id="f" x1="-26.383" y1="1.601" x2="-26.37" y2="1.601" xlink:href="#d"/><clipPath id="g"><path class="a" d="M1933.172,720.392v64.441c0,.994.035,1.98.091,2.959.016.29.046.58.067.87.051.7.111,1.394.191,2.085.036.334.083.665.127,1,.089.658.188,1.313.3,1.96.058.33.112.659.176.986.137.709.293,1.413.46,2.111.045.194.078.392.127.585,0,.008.01.012.011.019a51.858,51.858,0,0,0,1.877,5.9.891.891,0,0,0,.859.093.948.948,0,0,0,.375-.808,50.128,50.128,0,0,1-2.118-7.1c-.061-.279-.126-.56-.182-.84q-.423-2.128-.66-4.315c-.033-.3-.057-.594-.082-.891-.141-1.521-.234-3.055-.234-4.61V721.777h100.752v63.056c0,1.557-.1,3.092-.234,4.614-.026.3-.049.592-.081.886q-.24,2.187-.661,4.317c-.057.28-.124.561-.183.84a50.2,50.2,0,0,1-10.272,21.251c-.107.132-.221.256-.332.386-.9,1.073-1.84,2.113-2.824,3.106-.091.093-.177.192-.269.284-1.055,1.048-2.16,2.046-3.3,3-.124.1-.247.207-.37.308-1.17.958-2.379,1.868-3.633,2.717-.063.045-.128.085-.193.128a50.255,50.255,0,0,1-8.333,4.526c-.051.023-.1.049-.156.069-1.393.588-2.822,1.1-4.274,1.568-.184.059-.369.119-.556.176q-2.1.644-4.279,1.1c-.224.049-.45.091-.676.134-1.459.286-2.938.52-4.439.679-.174.018-.349.026-.522.045-1.579.148-3.174.241-4.79.241s-3.212-.093-4.79-.241c-.175-.019-.35-.027-.525-.045-1.5-.159-2.979-.393-4.439-.679-.225-.043-.451-.085-.676-.134q-2.175-.46-4.278-1.1c-.187-.057-.371-.117-.558-.176-1.45-.464-2.881-.98-4.272-1.568-.054-.02-.107-.047-.16-.069a50.33,50.33,0,0,1-8.33-4.526c-.062-.043-.129-.083-.192-.128-1.254-.849-2.464-1.759-3.633-2.717-.123-.1-.247-.206-.369-.308-1.141-.953-2.246-1.951-3.3-3-.093-.092-.182-.191-.272-.284-.985-.992-1.924-2.033-2.823-3.106-.11-.131-.225-.254-.332-.386-.413-.5-.8-1.024-1.192-1.542a.958.958,0,0,0-.946-.144.728.728,0,0,0-.264.844c.383.508.761,1.017,1.16,1.511.006.006,0,.014.007.022.038.043.078.086.116.134.573.7,1.162,1.389,1.77,2.058.123.137.256.263.38.4.477.512.96,1.02,1.457,1.514.328.327.667.64,1,.958.3.28.595.562.9.837.4.359.807.706,1.217,1.054q.371.315.748.623c.454.37.912.732,1.377,1.083.207.158.417.311.626.466.51.376,1.024.746,1.549,1.1.146.1.3.194.446.3a51.377,51.377,0,0,0,8.046,4.378c.167.073.329.151.5.22.533.226,1.071.432,1.61.638.31.117.619.239.93.351.481.174.968.335,1.456.494.386.127.771.25,1.16.367.448.135.9.261,1.347.384s.888.234,1.333.341c.421.1.842.2,1.264.293.491.107.984.2,1.481.294.4.073.788.146,1.186.21.542.089,1.088.16,1.635.231.361.045.72.1,1.083.139.616.066,1.239.111,1.862.156.3.022.6.053.9.07.925.049,1.851.076,2.787.076h.022c.935,0,1.862-.027,2.785-.076.3-.017.6-.049.9-.07.623-.044,1.246-.09,1.864-.156.363-.039.722-.093,1.084-.139.545-.07,1.093-.142,1.634-.231.4-.064.791-.137,1.185-.21.5-.092.989-.187,1.479-.294.424-.091.846-.191,1.266-.293q.669-.16,1.332-.341c.452-.123.9-.249,1.348-.384q.583-.176,1.16-.367c.487-.159.972-.32,1.455-.494.313-.112.621-.234.93-.351.541-.207,1.08-.412,1.613-.638.166-.069.33-.148.5-.22a51.477,51.477,0,0,0,8.045-4.378c.148-.1.3-.2.446-.3.523-.355,1.037-.726,1.549-1.1.209-.154.418-.308.625-.466q.7-.526,1.378-1.083c.252-.206.5-.413.748-.623.41-.348.816-.7,1.215-1.054.305-.275.6-.556.9-.837.337-.318.677-.631,1.006-.958.5-.494.978-1,1.453-1.514.128-.137.259-.263.383-.4.609-.669,1.2-1.358,1.771-2.058.037-.048.078-.091.116-.134,0-.008,0-.016.006-.022a51.6,51.6,0,0,0,10.022-20c0-.007.01-.011.013-.019.047-.193.08-.391.127-.585.165-.7.321-1.4.458-2.111.064-.327.119-.655.175-.986.114-.647.216-1.3.3-1.96.045-.332.089-.663.126-1,.082-.69.141-1.388.194-2.085.019-.29.048-.58.064-.87.057-.979.091-1.966.091-2.959V720.392Z" transform="translate(-1933.172 -720.392)"/></clipPath><linearGradient id="h" x1="-13.961" y1="1.053" x2="-13.954" y2="1.053" xlink:href="#d"/></defs><g transform="translate(20.47 22.904)"><g class="b"><rect class="c" width="117.911" height="117.911" transform="translate(-41.643 41.644) rotate(-45)"/></g></g><path class="d" d="M1963.852,734.483l-.119-.82h-.037a2.48,2.48,0,0,1-.8.707,2.158,2.158,0,0,1-.974.208,1.682,1.682,0,0,1-1.187-.392,1.4,1.4,0,0,1-.424-1.082,1.334,1.334,0,0,1,.63-1.174,3.427,3.427,0,0,1,1.828-.445l.986-.027v-.345a1.743,1.743,0,0,0-.3-1.112,1.157,1.157,0,0,0-.967-.377,3.223,3.223,0,0,0-1.491.4l-.176-.411a3.965,3.965,0,0,1,1.686-.4,1.69,1.69,0,0,1,1.275.442,1.953,1.953,0,0,1,.42,1.383v3.444Zm-1.905-.335a1.647,1.647,0,0,0,1.786-1.791v-.509l-.905.037a3.42,3.42,0,0,0-1.555.342.981.981,0,0,0-.465.9.969.969,0,0,0,.3.756,1.219,1.219,0,0,0,.84.267" transform="translate(-1919.055 -719.196)"/><path class="d" d="M1968.263,733.136a1.233,1.233,0,0,1-.528,1.07,2.587,2.587,0,0,1-1.5.372,3.605,3.605,0,0,1-1.649-.318v-.511a3.638,3.638,0,0,0,1.649.391,2.161,2.161,0,0,0,1.165-.254.774.774,0,0,0,.4-.679.827.827,0,0,0-.317-.656,3.507,3.507,0,0,0-1.04-.525,6.127,6.127,0,0,1-1.091-.482,1.508,1.508,0,0,1-.474-.46,1.14,1.14,0,0,1-.16-.62,1.069,1.069,0,0,1,.487-.921,2.378,2.378,0,0,1,1.366-.337,4.059,4.059,0,0,1,1.591.315l-.177.429a3.715,3.715,0,0,0-1.414-.316,2.045,2.045,0,0,0-1,.21.644.644,0,0,0-.372.58.8.8,0,0,0,.288.648,4.006,4.006,0,0,0,1.128.544,5.635,5.635,0,0,1,1.02.454,1.487,1.487,0,0,1,.477.46,1.115,1.115,0,0,1,.16.605" transform="translate(-1918.475 -719.197)"/><path class="d" d="M1972.05,733.136a1.233,1.233,0,0,1-.528,1.07,2.587,2.587,0,0,1-1.5.372,3.605,3.605,0,0,1-1.649-.318v-.511a3.631,3.631,0,0,0,1.649.391,2.161,2.161,0,0,0,1.165-.254.774.774,0,0,0,.4-.679.826.826,0,0,0-.317-.656,3.491,3.491,0,0,0-1.04-.525,6.119,6.119,0,0,1-1.091-.482,1.508,1.508,0,0,1-.474-.46,1.129,1.129,0,0,1-.16-.62,1.067,1.067,0,0,1,.489-.921,2.366,2.366,0,0,1,1.365-.337,4.049,4.049,0,0,1,1.59.315l-.176.429a3.715,3.715,0,0,0-1.414-.316,2.045,2.045,0,0,0-1,.21.644.644,0,0,0-.373.58.8.8,0,0,0,.289.648,4,4,0,0,0,1.127.544,5.667,5.667,0,0,1,1.02.454,1.487,1.487,0,0,1,.477.46,1.123,1.123,0,0,1,.16.605" transform="translate(-1917.962 -719.197)"/><path class="d" d="M1972.512,728.084q0-.46.3-.46a.27.27,0,0,1,.232.119.6.6,0,0,1,.083.341.609.609,0,0,1-.083.336.265.265,0,0,1-.232.125c-.2,0-.3-.154-.3-.461m.538,6.615h-.471v-5.177h.471Z" transform="translate(-1917.401 -719.412)"/><path class="d" d="M1977.909,734.484v-3.359a1.637,1.637,0,0,0-.328-1.136,1.33,1.33,0,0,0-1.02-.354,1.764,1.764,0,0,0-1.36.469,2.209,2.209,0,0,0-.43,1.521v2.859h-.472v-5.177h.4l.09.709h.03a1.941,1.941,0,0,1,1.793-.81q1.764,0,1.763,1.892v3.386Z" transform="translate(-1917.159 -719.197)"/><path class="d" d="M1982.342,734.483l-.119-.82h-.037a2.482,2.482,0,0,1-.8.707,2.157,2.157,0,0,1-.973.208,1.682,1.682,0,0,1-1.188-.392,1.4,1.4,0,0,1-.423-1.082,1.332,1.332,0,0,1,.63-1.174,3.42,3.42,0,0,1,1.827-.445l.986-.027v-.345a1.75,1.75,0,0,0-.3-1.112,1.159,1.159,0,0,0-.968-.377,3.222,3.222,0,0,0-1.491.4l-.176-.411a3.964,3.964,0,0,1,1.686-.4,1.689,1.689,0,0,1,1.275.442,1.953,1.953,0,0,1,.42,1.383v3.444Zm-1.906-.335a1.647,1.647,0,0,0,1.786-1.791v-.509l-.905.037a3.419,3.419,0,0,0-1.554.342.981.981,0,0,0-.466.9.969.969,0,0,0,.3.756,1.219,1.219,0,0,0,.84.267" transform="translate(-1916.548 -719.196)"/><path class="d" d="M1984.945,734.3a3.576,3.576,0,0,0,.78-.075v.38a2.464,2.464,0,0,1-.79.115,1.282,1.282,0,0,1-1.012-.368,1.693,1.693,0,0,1-.326-1.151v-3.344h-.768v-.276l.768-.215.237-1.173h.244v1.255h1.518v.409h-1.518v3.276a1.482,1.482,0,0,0,.209.881.759.759,0,0,0,.657.286" transform="translate(-1916.002 -719.335)"/><path class="d" d="M1986.567,729.294v3.352a1.642,1.642,0,0,0,.329,1.138,1.325,1.325,0,0,0,1.019.353,1.781,1.781,0,0,0,1.36-.466,2.183,2.183,0,0,0,.435-1.518v-2.859h.468v5.177h-.4l-.086-.713h-.028a1.946,1.946,0,0,1-1.8.809q-1.766,0-1.767-1.891v-3.382Z" transform="translate(-1915.559 -719.185)"/><path class="d" d="M1993.041,729.206a4.059,4.059,0,0,1,.7.067l-.09.453a2.733,2.733,0,0,0-.671-.081,1.3,1.3,0,0,0-1.087.561,2.288,2.288,0,0,0-.424,1.419v2.858H1991v-5.177h.4l.048.933h.033a2.184,2.184,0,0,1,.681-.8,1.593,1.593,0,0,1,.877-.233" transform="translate(-1914.895 -719.197)"/><path class="d" d="M1997.322,734.483l-.119-.82h-.037a2.48,2.48,0,0,1-.8.707,2.156,2.156,0,0,1-.973.208,1.683,1.683,0,0,1-1.188-.392,1.4,1.4,0,0,1-.422-1.082,1.331,1.331,0,0,1,.63-1.174,3.424,3.424,0,0,1,1.827-.445l.986-.027v-.345a1.749,1.749,0,0,0-.3-1.112,1.158,1.158,0,0,0-.968-.377,3.223,3.223,0,0,0-1.491.4l-.176-.411a3.963,3.963,0,0,1,1.686-.4,1.689,1.689,0,0,1,1.275.442,1.953,1.953,0,0,1,.42,1.383v3.444Zm-1.906-.335a1.647,1.647,0,0,0,1.786-1.791v-.509l-.905.037a3.419,3.419,0,0,0-1.554.342.981.981,0,0,0-.466.9.969.969,0,0,0,.3.756,1.219,1.219,0,0,0,.84.267" transform="translate(-1914.518 -719.196)"/><g transform="translate(0 48.658)"><g class="e"><rect class="f" width="82.236" height="83.511" transform="matrix(0.736, -0.677, 0.677, 0.736, -34.547, 31.749)"/></g></g><g transform="translate(40.794 21.156)"><g class="g"><rect class="h" width="83.56" height="83.847" transform="matrix(0.736, -0.677, 0.677, 0.736, -30.716, 28.228)"/></g></g><g transform="translate(10.439)"><g class="i"><rect class="j" width="154.855" height="155.612" transform="matrix(0.736, -0.677, 0.677, 0.736, -57.895, 53.204)"/></g></g></svg>