<svg xmlns="http://www.w3.org/2000/svg" xmlns:xlink="http://www.w3.org/1999/xlink" width="108.267" height="113.967" viewBox="0 0 108.267 113.967"><defs><style>.a{fill:none;}.b{clip-path:url(#a);}.c{fill:url(#b);}.d{fill:#070389;}.e{clip-path:url(#c);}.f{fill:url(#d);}.g{clip-path:url(#e);}.h{fill:url(#f);}.i{clip-path:url(#g);}.j{fill:url(#h);}.k{clip-path:url(#i);}.l{fill:url(#j);}</style><clipPath id="a"><path class="a" d="M1739.419,740.173v12.8h8.588V780.93a28.061,28.061,0,1,1-56.122,0V752.976h8.587v-12.8h-21.453V780.93a40.927,40.927,0,0,0,81.854,0V740.173Z" transform="translate(-1679.019 -740.173)"/></clipPath><linearGradient id="b" x1="-16.227" y1="1.237" x2="-16.217" y2="1.237" gradientUnits="objectBoundingBox"><stop offset="0" stop-color="#fff"/><stop offset="1" stop-color="#d2dcf7"/></linearGradient><clipPath id="c"><path class="a" d="M1670.355,720.392h0v63.2c0,1.63.079,3.274.235,4.886a.679.679,0,0,0,.674.614c.021,0,.043,0,.067,0a.682.682,0,0,0,.611-.743c-.151-1.567-.227-3.167-.227-4.755V721.752h98.812v17.52a.68.68,0,1,0,1.36,0V720.392H1670.355Z" transform="translate(-1670.354 -720.392)"/></clipPath><linearGradient id="d" x1="-15.48" y1="1.427" x2="-15.471" y2="1.427" gradientUnits="objectBoundingBox"><stop offset="0" stop-color="#070389"/><stop offset="1" stop-color="#070352"/></linearGradient><clipPath id="e"><path class="a" d="M1769.908,758.811v19.665a49.4,49.4,0,0,1-93.705,21.863.68.68,0,0,0-1.218.6,50.762,50.762,0,0,0,96.284-22.466V758.811a.68.68,0,1,0-1.36,0" transform="translate(-1674.914 -758.13)"/></clipPath><linearGradient id="f" x1="-15.791" y1="1.064" x2="-15.781" y2="1.064" xlink:href="#d"/><clipPath id="g"><path class="a" d="M1688.687,794.741q0-3.367,2.689-9.2a50.2,50.2,0,0,1,6.448-10.5q3.758-4.662,6.284-4.666,1.815,0,1.817,2.724a16.98,16.98,0,0,1-.519,3.5c-.042.174-.237.325-.584.454q-3.369,1.49-3.368,3.37a.894.894,0,0,0,.064.387,25.4,25.4,0,0,1-4.567,10.952q-3.793,5.44-6.513,5.443-1.749,0-1.75-2.464m10.176-48.466q-2.267,2.914-5.444,7.9-3.563.066-4.988.066a2.061,2.061,0,0,0-1.1.322c-.346.217-.518.433-.518.65s.215.322.647.322h5.119q-2.852,4.6-6.057,10.3t-6.642,12.117q-3.436,6.415-4.926,9.072l-1.036,2.008q-1.039,2.075-2.074,4.8a12.844,12.844,0,0,0-1.037,4.082q0,1.165.907,1.165,2.526,0,10.3-7.516c.67-.645,1.373-1.342,2.094-2.075a17.624,17.624,0,0,0-.539,4.02q0,5.636,4.6,5.637,3.695,0,7.743-3.111a31.55,31.55,0,0,0,6.869-7.224,34.872,34.872,0,0,0,4.179-7.936l.908-1.232q.259-.259,1.652-1.424c.927-.78,1.629-1.4,2.106-1.88a1.43,1.43,0,0,0,.518-.908c0-.171-.2-.3-.584-.388a12.545,12.545,0,0,0-4.082,1.037.113.113,0,0,1-.129-.129.265.265,0,0,1,.065-.2,9.208,9.208,0,0,0,1.556-4.211q0-2.851-3.628-2.85-4.991,0-10.143,4.113a33.506,33.506,0,0,0-8.392,9.916,29.48,29.48,0,0,0-1.945,4.284c-.356.368-.714.742-1.035,1.061q-4.34,4.148-5.247,4.147c-.216,0-.325-.15-.325-.453q0-1.489,2.723-6.479.779-1.363,15.744-29.743h6.091q1.88,0,1.879-1.037c0-.216-.2-.324-.584-.324h-6.675l2.2-4.015q2.463-4.476,2.462-5.834,0-.581-.452-.581-.78,0-2.787,2.527" transform="translate(-1670.806 -743.748)"/></clipPath><linearGradient id="h" x1="-27.672" y1="1.815" x2="-27.655" y2="1.815" xlink:href="#d"/><clipPath id="i"><path class="a" d="M1756.74,758.174q1.911-3.335,5.024-8a47.522,47.522,0,0,1,5.572-7.128,3.534,3.534,0,0,1,2.2-1.3c.3,0,.455.217.455.647a11.905,11.905,0,0,1-.973,3.629,49.671,49.671,0,0,1-2.883,5.992,43.21,43.21,0,0,1-5.573,7.584,48.052,48.052,0,0,1-8.261,7.353,1.158,1.158,0,0,1-.519.131q3.046-5.573,4.957-8.911m13.121-18.5q-10.69,5.314-23.456,28.577-5.859,10.946-8.754,16.626-1.673,1.836-3.1,3.333-3.757,3.759-4.731,3.76c-.215,0-.323-.132-.323-.391a6.877,6.877,0,0,1,.681-2.075q.68-1.555,1.847-3.725t2.2-4.018q1.035-1.85,2.236-3.919t1.457-2.592a1.119,1.119,0,0,0,.2-.454c0-.3-.282-.454-.842-.454a5.091,5.091,0,0,0-3.11,1.2,12.511,12.511,0,0,0-2.105,1.912,7.822,7.822,0,0,0-.811,1.232,43.023,43.023,0,0,1-4.73,6.156q-2.981,3.3-4.309,4.471t-2.105,1.878a3.466,3.466,0,0,1-2.01,1.1q-.453,0-.453-.713a7.152,7.152,0,0,1,.907-3.047,42.111,42.111,0,0,1,8.456-11.7q5.214-5.088,11.177-5.085c1.079,0,1.62-.216,1.62-.649q0-1.1-3.628-1.1a19.183,19.183,0,0,0-8.392,1.943,24.651,24.651,0,0,0-7.1,5.087,43.917,43.917,0,0,0-5.282,6.578c-.688,1.061-1.314,2.137-1.9,3.226-.657.695-1.277,1.343-1.827,1.892q-4.342,4.148-5.247,4.147c-.217,0-.326-.15-.326-.453q0-1.489,2.723-6.479.778-1.363,15.744-29.743h6.091q1.88,0,1.879-1.037c0-.216-.194-.324-.585-.324h-6.672l2.2-4.015q2.463-4.476,2.463-5.834,0-.581-.454-.581-.779,0-2.786,2.527-2.267,2.914-5.444,7.9-3.562.066-4.988.066a2.063,2.063,0,0,0-1.1.322c-.346.217-.519.433-.519.65s.217.322.65.322h5.118q-2.851,4.6-6.057,10.3t-6.642,12.117q-3.437,6.415-4.925,9.072l-1.037,2.008q-1.039,2.075-2.073,4.8a12.841,12.841,0,0,0-1.037,4.082q0,1.165.907,1.165,2.528,0,10.3-7.516c.647-.623,1.324-1.3,2.02-2-.064.152-.146.3-.207.444a29.984,29.984,0,0,0-.94,3.047,14.483,14.483,0,0,0-.615,3.367q0,2.206,1.425,2.205,1.361,0,3.887-1.943l1.491-1.3q1.557-1.358,4.049-3.789t4.441-4.567c.472-.477.8-.713.97-.713a.115.115,0,0,1,.131.129,1.793,1.793,0,0,1-.26.584l-1.166,2.008a43.3,43.3,0,0,0-2.3,4.664,11.452,11.452,0,0,0-1.134,3.955c0,.688.3,1.036.908,1.036q2.006,0,7.386-4.924c1.711-1.56,3.669-3.508,5.82-5.756-.2.417-.37.785-.505,1.091s-.379.874-.746,1.716-.648,1.491-.844,1.943-.419,1.016-.679,1.685a10.916,10.916,0,0,0-.551,1.848,8.286,8.286,0,0,0-.16,1.556q0,1.361.971,1.359,2.2,0,10.3-7.646,3.693-3.56,8.487-8.878a3.717,3.717,0,0,0,.973-2.4c0-.17-.044-.259-.131-.259a.542.542,0,0,0-.324.194q-4.47,5.12-7.193,7.841-3.759,3.761-5.054,3.756c-.3,0-.453-.192-.453-.583a5.246,5.246,0,0,1,.324-1.293l1.294-2.981q1.363-3.047,4.083-8.327t5.573-9.883a1.5,1.5,0,0,1,.712-.583,49.649,49.649,0,0,0,6.318-4.4,84.407,84.407,0,0,0,7.484-6.806,41.6,41.6,0,0,0,6.478-8.522,17.353,17.353,0,0,0,2.657-8.519c0-1.121-.6-1.684-1.813-1.684a6.914,6.914,0,0,0-3.111.776" transform="translate(-1698.651 -738.897)"/></clipPath><linearGradient id="j" x1="-19.623" y1="1.468" x2="-19.612" y2="1.468" xlink:href="#d"/></defs><g transform="translate(9.84 22.462)"><g class="b"><rect class="c" width="115.639" height="115.639" transform="translate(-40.841 40.842) rotate(-45)"/></g></g><path class="d" d="M1700.444,734.212l-.117-.8h-.038a2.409,2.409,0,0,1-.787.694,2.094,2.094,0,0,1-.955.2,1.644,1.644,0,0,1-1.164-.385,1.367,1.367,0,0,1-.416-1.061,1.311,1.311,0,0,1,.619-1.154,3.374,3.374,0,0,1,1.792-.435l.966-.027v-.337a1.716,1.716,0,0,0-.294-1.091,1.135,1.135,0,0,0-.948-.369,3.154,3.154,0,0,0-1.463.393l-.173-.4a3.9,3.9,0,0,1,1.653-.392,1.654,1.654,0,0,1,1.25.433,1.912,1.912,0,0,1,.412,1.356v3.378Zm-1.869-.328a1.615,1.615,0,0,0,1.752-1.757v-.5l-.888.036a3.364,3.364,0,0,0-1.525.335.962.962,0,0,0-.455.88.949.949,0,0,0,.292.742,1.192,1.192,0,0,0,.824.262" transform="translate(-1666.747 -719.219)"/><path class="d" d="M1704.77,732.891a1.211,1.211,0,0,1-.518,1.049,2.538,2.538,0,0,1-1.473.366,3.537,3.537,0,0,1-1.616-.312v-.5a3.57,3.57,0,0,0,1.616.383,2.128,2.128,0,0,0,1.142-.249.758.758,0,0,0,.39-.665.806.806,0,0,0-.31-.644,3.4,3.4,0,0,0-1.02-.514,6.018,6.018,0,0,1-1.071-.474,1.479,1.479,0,0,1-.463-.45,1.114,1.114,0,0,1-.158-.61,1.045,1.045,0,0,1,.478-.9,2.322,2.322,0,0,1,1.34-.332,3.983,3.983,0,0,1,1.559.308l-.173.422a3.637,3.637,0,0,0-1.386-.31,2.01,2.01,0,0,0-.987.206.631.631,0,0,0-.364.57.79.79,0,0,0,.284.636,3.966,3.966,0,0,0,1.1.534,5.6,5.6,0,0,1,1,.444,1.472,1.472,0,0,1,.469.452,1.1,1.1,0,0,1,.157.594" transform="translate(-1666.178 -719.22)"/><path class="d" d="M1708.484,732.891a1.211,1.211,0,0,1-.518,1.049,2.538,2.538,0,0,1-1.473.366,3.537,3.537,0,0,1-1.616-.312v-.5a3.57,3.57,0,0,0,1.616.383,2.128,2.128,0,0,0,1.142-.249.758.758,0,0,0,.39-.665.806.806,0,0,0-.31-.644,3.4,3.4,0,0,0-1.021-.514,6.036,6.036,0,0,1-1.07-.474,1.491,1.491,0,0,1-.463-.45,1.116,1.116,0,0,1-.158-.61,1.045,1.045,0,0,1,.478-.9,2.322,2.322,0,0,1,1.34-.332,3.983,3.983,0,0,1,1.559.308l-.173.422a3.639,3.639,0,0,0-1.387-.31,2.01,2.01,0,0,0-.987.206.631.631,0,0,0-.364.57.79.79,0,0,0,.284.636,3.946,3.946,0,0,0,1.1.534,5.6,5.6,0,0,1,1,.444,1.469,1.469,0,0,1,.469.452,1.1,1.1,0,0,1,.157.594" transform="translate(-1665.675 -719.22)"/><path class="d" d="M1708.937,727.935c0-.3.1-.448.293-.448a.263.263,0,0,1,.227.116.585.585,0,0,1,.082.333.6.6,0,0,1-.082.332.26.26,0,0,1-.227.122q-.293,0-.293-.453m.527,6.487H1709v-5.078h.462Z" transform="translate(-1665.124 -719.43)"/><path class="d" d="M1714.23,734.213V730.92a1.608,1.608,0,0,0-.323-1.115,1.305,1.305,0,0,0-1-.349,1.734,1.734,0,0,0-1.335.461,2.169,2.169,0,0,0-.423,1.491v2.8h-.462v-5.078h.393l.087.7h.028a1.908,1.908,0,0,1,1.761-.794q1.729,0,1.728,1.854v3.321Z" transform="translate(-1664.887 -719.22)"/><path class="d" d="M1718.577,734.212l-.116-.8h-.037a2.41,2.41,0,0,1-.787.694,2.1,2.1,0,0,1-.955.2,1.644,1.644,0,0,1-1.164-.385,1.367,1.367,0,0,1-.416-1.061,1.311,1.311,0,0,1,.619-1.154,3.371,3.371,0,0,1,1.792-.435l.966-.027v-.337a1.716,1.716,0,0,0-.294-1.091,1.135,1.135,0,0,0-.948-.369,3.152,3.152,0,0,0-1.463.393l-.173-.4a3.9,3.9,0,0,1,1.653-.392,1.654,1.654,0,0,1,1.25.433,1.912,1.912,0,0,1,.412,1.356v3.378Zm-1.868-.328a1.614,1.614,0,0,0,1.752-1.757v-.5l-.888.036a3.359,3.359,0,0,0-1.525.335.963.963,0,0,0-.457.88.95.95,0,0,0,.293.742,1.191,1.191,0,0,0,.824.262" transform="translate(-1664.289 -719.219)"/><path class="d" d="M1721.129,734.03a3.526,3.526,0,0,0,.765-.074v.372a2.4,2.4,0,0,1-.776.114,1.256,1.256,0,0,1-.992-.361,1.666,1.666,0,0,1-.319-1.13v-3.279h-.753V729.4l.753-.209.234-1.15h.237v1.229h1.49v.4h-1.49v3.212a1.459,1.459,0,0,0,.206.865.747.747,0,0,0,.645.281" transform="translate(-1663.753 -719.355)"/><path class="d" d="M1722.721,729.123v3.287a1.612,1.612,0,0,0,.322,1.116,1.3,1.3,0,0,0,1,.346,1.751,1.751,0,0,0,1.334-.457,2.143,2.143,0,0,0,.427-1.49v-2.8h.458V734.2h-.393l-.084-.7h-.027a1.908,1.908,0,0,1-1.76.795q-1.736,0-1.735-1.855v-3.317Z" transform="translate(-1663.318 -719.209)"/><path class="d" d="M1729.07,729.036a4.021,4.021,0,0,1,.69.066l-.089.444a2.672,2.672,0,0,0-.657-.079,1.283,1.283,0,0,0-1.066.55,2.25,2.25,0,0,0-.414,1.392v2.8h-.463v-5.077h.393l.047.916h.033a2.11,2.11,0,0,1,.668-.787,1.553,1.553,0,0,1,.86-.228" transform="translate(-1662.667 -719.22)"/><path class="d" d="M1733.269,734.212l-.117-.8h-.037a2.411,2.411,0,0,1-.787.694,2.1,2.1,0,0,1-.955.2,1.643,1.643,0,0,1-1.164-.385,1.367,1.367,0,0,1-.416-1.061,1.311,1.311,0,0,1,.619-1.154,3.375,3.375,0,0,1,1.792-.435l.966-.027v-.337a1.716,1.716,0,0,0-.294-1.091,1.135,1.135,0,0,0-.948-.369,3.151,3.151,0,0,0-1.463.393l-.173-.4a3.9,3.9,0,0,1,1.653-.392,1.654,1.654,0,0,1,1.25.433,1.913,1.913,0,0,1,.412,1.356v3.378Zm-1.869-.328a1.614,1.614,0,0,0,1.752-1.757v-.5l-.888.036a3.36,3.36,0,0,0-1.525.335.963.963,0,0,0-.456.88.95.95,0,0,0,.293.742,1.192,1.192,0,0,0,.824.262" transform="translate(-1662.297 -719.219)"/><g class="e"><rect class="f" width="121.396" height="119.038" transform="matrix(0.742, -0.67, 0.67, 0.742, -34.173, 30.866)"/></g><g transform="translate(5.178 42.853)"><g class="g"><rect class="h" width="119.242" height="117.422" transform="matrix(0.742, -0.67, 0.67, 0.742, -35.468, 31.951)"/></g></g><g transform="translate(0.513 26.522)"><g class="i"><rect class="j" width="67.813" height="68.822" transform="matrix(0.742, -0.67, 0.67, 0.742, -27.557, 24.891)"/></g></g><g transform="translate(32.133 21.013)"><g class="k"><rect class="l" width="97.369" height="96.28" transform="translate(-30.329 27.395) rotate(-42.089)"/></g></g></svg>