<svg xmlns="http://www.w3.org/2000/svg" xmlns:xlink="http://www.w3.org/1999/xlink" width="116.813" height="113.964" viewBox="0 0 116.813 113.964"><defs><style>.a{fill:none;}.b{clip-path:url(#a);}.c{fill:url(#b);}.d{fill:#7d0754;}.e{clip-path:url(#c);}.f{fill:url(#d);}.g{clip-path:url(#e);}.h{fill:url(#f);}.i{clip-path:url(#g);}.j{fill:url(#h);}.k{clip-path:url(#i);}.l{fill:url(#j);}.m{clip-path:url(#k);}.n{fill:url(#l);}.o{clip-path:url(#m);}.p{fill:url(#n);}</style><clipPath id="a"><path class="a" d="M2268.961,740.172v12.8h8.587V780.93a28.061,28.061,0,0,1-56.122,0V752.975h8.588v-12.8h-21.455V780.93a40.928,40.928,0,0,0,81.856,0V740.172Z" transform="translate(-2208.559 -740.172)"/></clipPath><linearGradient id="b" x1="-21.427" y1="1.253" x2="-21.417" y2="1.253" gradientUnits="objectBoundingBox"><stop offset="0" stop-color="#fff"/><stop offset="1" stop-color="#d2dcf7"/></linearGradient><clipPath id="c"><path class="a" d="M2199.519,772.26q0-.945,2.2-4.321a23.429,23.429,0,0,1,3.659-4.651l.237-.19a1.88,1.88,0,0,1,.542-.353,1.521,1.521,0,0,1,.638-.166c.313,0,.471.253.471.755a4.931,4.931,0,0,1-.566,2.078,14.594,14.594,0,0,1-3.044,4.343,13.107,13.107,0,0,1-2.785,2.22,4.1,4.1,0,0,1-1.252.471c-.064,0-.095-.062-.095-.187m6.517-10.72a19.07,19.07,0,0,0-8.572,7.415q-3.7,5.476-3.707,10.482,0,3.018,2.173,3.022a8.9,8.9,0,0,0,4.533-1.819,30.586,30.586,0,0,0,4.721-3.8q2.691-2.6,6.188-6.467a2.725,2.725,0,0,0,.707-1.749c0-.126-.032-.19-.093-.19a.384.384,0,0,0-.237.142q-4.673,5.335-7.177,7.649-3.306,3.071-5.337,3.071-1.273,0-1.274-1.7a10.2,10.2,0,0,1,.709-3.445.564.564,0,0,1,.33-.333,27.088,27.088,0,0,0,8.687-5.383q3.874-3.541,3.873-6.28,0-1.463-1.841-1.465a9.655,9.655,0,0,0-3.682.851" transform="translate(-2193.757 -760.69)"/></clipPath><linearGradient id="d" x1="-88.106" y1="3.682" x2="-88.066" y2="3.682" gradientUnits="objectBoundingBox"><stop offset="0" stop-color="#7d0754"/><stop offset="1" stop-color="#490754"/></linearGradient><clipPath id="e"><path class="a" d="M2248.938,754.736q1.393-2.427,3.659-5.83a34.872,34.872,0,0,1,4.062-5.194,2.573,2.573,0,0,1,1.6-.945c.22,0,.333.158.333.475a8.671,8.671,0,0,1-.708,2.642,36.879,36.879,0,0,1-2.1,4.368,31.282,31.282,0,0,1-4.061,5.524,34.951,34.951,0,0,1-6.019,5.359.846.846,0,0,1-.38.093q2.221-4.059,3.614-6.493m9.561-13.479q-7.791,3.87-17.092,20.822-4.28,8-6.387,12.13c-1.867,2.054-3.406,3.653-4.567,4.727q-3.211,3.071-5.336,3.071-1.228,0-1.229-1.7a15.23,15.23,0,0,1,1.654-5.783,31.437,31.437,0,0,1,3.9-6.517q2.242-2.855,3.705-2.857c.41,0,.613.316.613.945q0,1.746-1.887,5.1l-.142.426a.21.21,0,0,0,.237.237,2.987,2.987,0,0,0,1.322-.71,14.1,14.1,0,0,0,1.226-.991q3.069-2.976,3.069-5.336,0-1.368-1.841-1.368-3.447,0-7.3,3.069a26.072,26.072,0,0,0-6.351,7.388c-.375.647-.692,1.276-.984,1.9-.249.262-.529.573-.763.818q-3.918,4.11-4.628,4.108-1.368,0-1.367-5.759,0-2.08.141-4.2,1.087-1.039,2.833-2.457l.9-.755a14.757,14.757,0,0,1,2.243-1.51,4.928,4.928,0,0,1,2.292-.755,1.371,1.371,0,0,1,1.014.471c.3.315.511.475.637.475.156-.033.237-.16.237-.379a6.563,6.563,0,0,0-.332-1.841c-.22-.726-.519-1.087-.9-1.087a4.566,4.566,0,0,0-1.509.565,45.956,45.956,0,0,0-7.321,5.949q.193-3.3.191-4.91,0-1.889-.756-1.887a3.506,3.506,0,0,0-1.841.732q-1.085.729-1.084,1.3a.269.269,0,0,0,.092.19.4.4,0,0,1,.072.094.86.86,0,0,1,.046.117c.016.048.04.11.072.19s.064.166.1.259a2.045,2.045,0,0,1,.07.378c.015.159.031.325.047.5s.031.379.048.614.024.48.024.735q0,.472-.379,4.815-4.863,4.722-9.349,9.492l-.142.186a1.563,1.563,0,0,0-.281.593,3.348,3.348,0,0,0-.142,1.013,6.211,6.211,0,0,0,.258,1.559c.174.628.387.944.639.944.283,0,.52-.3.708-.9l.567-1.323a29.408,29.408,0,0,1,2.667-4.25,51.854,51.854,0,0,1,4.982-5.9q-.191,3.211-.187,4.768a19.782,19.782,0,0,0,.328,4.3q.331,1.32,1.182,1.321,1.133,0,4.484-3.211c1.06-.99,2.144-2.061,3.247-3.181a12.408,12.408,0,0,0-.649,3.8q0,3.35,2.173,3.351a8.711,8.711,0,0,0,4.509-1.77,34.653,34.653,0,0,0,4.792-3.8c.81-.78,1.682-1.662,2.6-2.616-.149.312-.282.594-.382.82s-.277.639-.544,1.251-.47,1.088-.612,1.416-.308.741-.5,1.229a8.3,8.3,0,0,0-.4,1.346,6.162,6.162,0,0,0-.117,1.134c0,.661.235.991.708.991q1.6,0,7.507-5.571c.524-.5,1.075-1.056,1.644-1.633-.5.959-.995,2.029-1.48,3.237a8.8,8.8,0,0,0-.779,2.882q0,.848.662.848,1.415,0,5.1-3.493l1.039-.9q.991-.894,2.88-2.808t3.637-3.945a.387.387,0,0,1,.235-.141c.062,0,.093.048.093.141l-1.462,2.5-.85,1.608q-.85,1.6-1.7,3.491a8.369,8.369,0,0,0-.849,2.457c0,.662.236.991.708.991q1.036,0,3.327-1.745a50.364,50.364,0,0,0,4.132-3.5q2.693-2.6,6.185-6.467a2.721,2.721,0,0,0,.709-1.749c0-.126-.032-.19-.094-.19a.382.382,0,0,0-.237.142c-.285.328-.543.619-.815.927l3.931-4.609.19-.093c.093,0,.142.125.142.377l-.142,2.549a51.324,51.324,0,0,1-.827,5.854,14.842,14.842,0,0,1-1.581,4.817l-.471.755a6.347,6.347,0,0,1-1.395,1.583,2.879,2.879,0,0,1-1.865.777q-1.18,0-1.181-1.415a6.956,6.956,0,0,1,1.063-3.3,8.938,8.938,0,0,1,2.242-2.787.276.276,0,0,0,.1-.191c0-.124-.08-.187-.235-.187a7.663,7.663,0,0,0-3.071,1.37q-3.02,2.219-3.021,4.957,0,2.693,3.446,2.69a8.532,8.532,0,0,0,2.856-.566,11.293,11.293,0,0,0,3.424-2.147,9.25,9.25,0,0,0,2.691-3.9,24.346,24.346,0,0,0,1.039-8.167,14.311,14.311,0,0,1,.33-3.19,9.442,9.442,0,0,1,.755-2.242,8.265,8.265,0,0,1,1.725-2.2,1.309,1.309,0,0,1,.352-.211c.252-.126.378-.267.378-.424,0-.254-.158-.38-.472-.38a6.158,6.158,0,0,0-3.116.757,6.082,6.082,0,0,0-2.078,1.888,83.577,83.577,0,0,1-6.138,7.317l-.425.52a1.273,1.273,0,0,0-.33.943c0,.221.078.333.236.333a.492.492,0,0,0,.262-.151c-1.263,1.4-2.354,2.573-3.237,3.458q-2.548,2.362-3.021,2.36c-.188,0-.284-.142-.284-.426q0-1.085,1.935-4.484.332-.565,2.621-4.557t2.95-5.171l.379-.9c0-.253-.142-.378-.424-.378a4.605,4.605,0,0,0-4.015,2.312,38.53,38.53,0,0,1-4.25,5.666,58.064,58.064,0,0,1-6.752,7.129,3.137,3.137,0,0,1-1.465.853c-.188,0-.282-.11-.282-.333q0-.848,3.116-6.562,1.133-2.126,2.974-5.076t1.936-3.141a1.16,1.16,0,0,0,.189-.518c0-.221-.157-.331-.471-.331a4.664,4.664,0,0,0-2.125.826,8.33,8.33,0,0,0-2.316,2.055,80.839,80.839,0,0,0-5.26,8.817c-.649.7-1.254,1.334-1.772,1.854q-2.739,2.735-3.684,2.736c-.22,0-.331-.14-.331-.424a3.852,3.852,0,0,1,.236-.945l.944-2.171q.991-2.22,2.975-6.068t4.061-7.2a1.081,1.081,0,0,1,.52-.425,36.167,36.167,0,0,0,4.6-3.212,61.27,61.27,0,0,0,5.454-4.956,30.44,30.44,0,0,0,4.722-6.21,12.671,12.671,0,0,0,1.935-6.208q0-1.228-1.322-1.229a5.037,5.037,0,0,0-2.267.567" transform="translate(-2201.367 -740.69)"/></clipPath><linearGradient id="f" x1="-29.781" y1="1.75" x2="-29.767" y2="1.75" xlink:href="#d"/><clipPath id="g"><path class="a" d="M2271.506,754.969a4.484,4.484,0,0,0-.992,2.667q0,1.414,1.181,1.415a3.085,3.085,0,0,0,2.314-1.251,3.911,3.911,0,0,0,1.085-2.573c0-1.068-.472-1.606-1.417-1.606a2.748,2.748,0,0,0-2.172,1.348" transform="translate(-2270.515 -753.621)"/></clipPath><linearGradient id="h" x1="-365.743" y1="15.524" x2="-365.581" y2="15.524" xlink:href="#d"/><clipPath id="i"><path class="a" d="M2284.625,779.316a17.436,17.436,0,0,1,1.959-6.705,36.336,36.336,0,0,1,4.7-7.647q2.737-3.4,4.58-3.4,1.322,0,1.321,1.983a12.383,12.383,0,0,1-.376,2.55c-.032.126-.175.236-.425.33q-2.457,1.083-2.456,2.454a.656.656,0,0,0,.048.285,18.471,18.471,0,0,1-3.33,7.977q-2.763,3.965-4.746,3.968-1.276,0-1.274-1.794m2.312-19.737a14.28,14.28,0,0,0-5.784,4.557q-2.855,3.47-2.855,6.3a2.828,2.828,0,0,0,.188,1.133.585.585,0,0,1-.1.332,21.681,21.681,0,0,1-4.58,5.1,1.088,1.088,0,0,1-.565.329c-.127,0-.189-.169-.189-.518a56.05,56.05,0,0,1,5.1-14.591,3.113,3.113,0,0,0,.378-.991.292.292,0,0,0-.332-.331,4.373,4.373,0,0,0-3.73,2.407,56.977,56.977,0,0,0-3.415,8.207c-1.063,1.171-2,2.165-2.77,2.939q-2.55,2.362-3.021,2.36-.285,0-.285-.426,0-1.131,1.936-4.533.424-.8,2.644-4.723t2.788-4.957a2.651,2.651,0,0,0,.329-.9c0-.221-.125-.333-.378-.333a4.3,4.3,0,0,0-2.338.829,7.3,7.3,0,0,0-2.052,2.007q-1.844,2.739-5.433,9.018l-.848,1.511a36.021,36.021,0,0,0-1.7,3.634,9.285,9.285,0,0,0-.85,3.164c0,.727.266,1.086.8,1.086q1.556,0,7.083-5.193c1.037-1,2.171-2.159,3.387-3.443a29.739,29.739,0,0,0-1.925,8.354q0,.9.565.895a2.26,2.26,0,0,0,1.181-.566l.9-.754q.942-.8,3.162-3.187t4.865-5.6l.234-.142a.961.961,0,0,1,.237.07,3.71,3.71,0,0,0,.567.141,4.5,4.5,0,0,0,.849.071,6.964,6.964,0,0,0,1.2-.119,14.506,14.506,0,0,0-1.293,5.69q0,4.108,3.352,4.108a9.384,9.384,0,0,0,5.643-2.265A23.062,23.062,0,0,0,2294.9,775a25.438,25.438,0,0,0,3.045-5.784l.661-.9q.189-.187,1.2-1.04t1.534-1.368a1.03,1.03,0,0,0,.377-.661c0-.126-.14-.219-.423-.282a9.125,9.125,0,0,0-2.975.753.082.082,0,0,1-.094-.094.19.19,0,0,1,.048-.141,6.731,6.731,0,0,0,1.132-3.069q0-2.078-2.645-2.079a11.912,11.912,0,0,0-7.39,3,24.347,24.347,0,0,0-6.112,7.224c-.175.312-.3.613-.46.921a3.682,3.682,0,0,1-1.24.236q-1.228,0-1.229-.33a.588.588,0,0,1,.141-.284q7.084-10.06,7.131-11.379c0-.157-.092-.236-.284-.236a1.537,1.537,0,0,0-.378.094" transform="translate(-2259.081 -759.485)"/></clipPath><linearGradient id="j" x1="-53.835" y1="2.497" x2="-53.812" y2="2.497" xlink:href="#d"/><clipPath id="k"><path class="a" d="M2199.9,720.392V763.2s0,.715.648.715a.645.645,0,0,0,.71-.671V721.75h98.813v41.509s-.026.6.715.6a.6.6,0,0,0,.643-.6V720.392Z" transform="translate(-2199.897 -720.392)"/></clipPath><linearGradient id="l" x1="-23.676" y1="1.759" x2="-23.665" y2="1.759" xlink:href="#d"/><clipPath id="m"><path class="a" d="M2299.447,781.942c-.136,1.01-.265,2.016-.46,3-.056.277-.119.551-.179.826a49.264,49.264,0,0,1-10.073,20.841c-.108.128-.22.25-.327.379q-1.321,1.579-2.77,3.044c-.088.092-.176.188-.266.277-1.033,1.029-2.116,2.01-3.238,2.942-.12.1-.24.2-.361.3-1.148.938-2.333,1.832-3.562,2.664-.063.045-.127.085-.189.127a49.486,49.486,0,0,1-8.17,4.438c-.051.023-.1.048-.154.068-1.365.578-2.767,1.083-4.193,1.538q-.271.089-.544.173-2.061.63-4.2,1.082c-.22.045-.442.086-.662.132-1.432.279-2.882.51-4.354.667-.17.016-.344.025-.514.042-1.548.147-3.111.237-4.7.237s-3.15-.091-4.7-.237c-.172-.017-.344-.026-.513-.042-1.474-.157-2.923-.387-4.355-.667-.22-.045-.443-.086-.662-.132q-2.132-.451-4.2-1.082c-.183-.056-.363-.114-.546-.173-1.424-.454-2.824-.96-4.19-1.538-.051-.02-.1-.045-.154-.068a49.547,49.547,0,0,1-8.171-4.438c-.063-.042-.126-.082-.187-.127-1.23-.832-2.417-1.726-3.563-2.664-.122-.1-.242-.2-.362-.3-1.121-.932-2.2-1.913-3.237-2.942-.091-.089-.176-.185-.267-.277q-1.446-1.461-2.767-3.044c-.109-.129-.221-.251-.326-.379a49.235,49.235,0,0,1-10.073-20.841c-.02-.09-.04-.182-.059-.274a.776.776,0,0,0-.826-.644.509.509,0,0,0-.564.644c.107.521.216,1.042.338,1.558.044.191.077.384.125.573,0,.008.009.011.011.019a50.613,50.613,0,0,0,9.83,19.618c0,.007,0,.016.006.022.036.044.076.086.114.132.562.686,1.139,1.362,1.736,2.018.12.134.251.26.374.393.468.5.94,1,1.428,1.485.321.321.653.629.983.94.293.275.583.552.882.822.392.351.792.693,1.194,1.032.242.206.486.411.734.611.446.363.9.715,1.352,1.063.2.153.406.3.612.456.5.368,1.006.73,1.519,1.081.145.1.292.191.438.287a50.407,50.407,0,0,0,7.89,4.295c.165.072.325.148.49.218.521.219,1.049.422,1.578.622.3.117.607.235.915.345.47.172.948.328,1.424.484.379.124.757.246,1.14.362.437.132.879.255,1.321.377s.869.227,1.307.333c.412.1.824.2,1.24.287.48.1.967.2,1.451.286.386.073.773.145,1.162.209.532.086,1.068.156,1.6.225.354.045.706.1,1.063.135.605.066,1.216.11,1.827.153.294.02.589.052.884.069.907.048,1.817.075,2.733.075h.022c.916,0,1.826-.027,2.732-.075.3-.017.59-.049.887-.069.61-.043,1.221-.087,1.826-.153.355-.037.708-.09,1.063-.135.536-.069,1.073-.139,1.6-.225.389-.064.776-.136,1.163-.209.484-.089.97-.182,1.451-.286.414-.09.827-.188,1.239-.287.437-.106.875-.217,1.307-.333s.885-.245,1.323-.377c.382-.116.76-.238,1.138-.362.477-.156.956-.312,1.426-.484.307-.11.61-.228.913-.345.53-.2,1.059-.4,1.58-.622.165-.07.326-.146.488-.218a50.407,50.407,0,0,0,7.892-4.295c.146-.1.293-.191.438-.287.514-.351,1.017-.713,1.52-1.081.2-.152.409-.3.612-.456.456-.347.907-.7,1.351-1.063.249-.2.49-.405.735-.611.4-.34.8-.681,1.192-1.032.3-.27.589-.547.882-.822.328-.311.662-.619.985-.94.486-.484.959-.982,1.427-1.485.124-.133.253-.259.376-.393.6-.656,1.173-1.332,1.735-2.018.036-.045.076-.087.112-.132,0-.006,0-.015.006-.022a50.62,50.62,0,0,0,9.831-19.618c0-.008.01-.011.012-.019.048-.19.08-.383.125-.573.162-.687.316-1.374.451-2.069.061-.324.117-.645.171-.966.111-.637.211-1.278.3-1.925.007-.05.012-.1.019-.153,0,0,0-.518-.677-.518s-.732.518-.732.518" transform="translate(-2200.806 -781.424)"/></clipPath><linearGradient id="n" x1="-23.738" y1="1.057" x2="-23.727" y2="1.057" xlink:href="#d"/></defs><g transform="translate(16.808 22.461)"><g class="b"><rect class="c" width="115.639" height="115.639" transform="translate(-40.842 40.842) rotate(-45)"/></g></g><path class="d" d="M2229.984,734.212l-.117-.8h-.036a2.41,2.41,0,0,1-.788.693,2.073,2.073,0,0,1-.954.206,1.643,1.643,0,0,1-1.164-.385,1.369,1.369,0,0,1-.416-1.061,1.313,1.313,0,0,1,.618-1.154,3.378,3.378,0,0,1,1.792-.435l.967-.027v-.337a1.717,1.717,0,0,0-.294-1.091,1.132,1.132,0,0,0-.948-.369,3.151,3.151,0,0,0-1.462.393l-.173-.4a3.878,3.878,0,0,1,1.654-.392,1.657,1.657,0,0,1,1.25.433,1.91,1.91,0,0,1,.412,1.355v3.379Zm-1.868-.328a1.617,1.617,0,0,0,1.751-1.757v-.5l-.887.038a3.345,3.345,0,0,0-1.525.335,1.08,1.08,0,0,0-.164,1.622,1.2,1.2,0,0,0,.825.262" transform="translate(-2189.318 -719.219)"/><path class="d" d="M2234.31,732.89a1.213,1.213,0,0,1-.518,1.05,2.541,2.541,0,0,1-1.473.366,3.522,3.522,0,0,1-1.616-.313v-.5a3.567,3.567,0,0,0,1.616.383,2.117,2.117,0,0,0,1.143-.25.755.755,0,0,0,.389-.665.8.8,0,0,0-.31-.643,3.37,3.37,0,0,0-1.021-.514,6.009,6.009,0,0,1-1.07-.475,1.477,1.477,0,0,1-.464-.449,1.124,1.124,0,0,1-.158-.61,1.043,1.043,0,0,1,.478-.9,2.321,2.321,0,0,1,1.34-.332,3.98,3.98,0,0,1,1.559.308l-.173.422a3.638,3.638,0,0,0-1.386-.31,2,2,0,0,0-.986.206.629.629,0,0,0-.366.57.786.786,0,0,0,.284.635,3.911,3.911,0,0,0,1.1.535,5.5,5.5,0,0,1,1,.444,1.467,1.467,0,0,1,.468.452,1.1,1.1,0,0,1,.157.593" transform="translate(-2188.749 -719.22)"/><path class="d" d="M2238.024,732.89a1.214,1.214,0,0,1-.518,1.05,2.54,2.54,0,0,1-1.473.366,3.522,3.522,0,0,1-1.616-.313v-.5a3.567,3.567,0,0,0,1.616.383,2.116,2.116,0,0,0,1.142-.25.755.755,0,0,0,.389-.665.8.8,0,0,0-.31-.643,3.373,3.373,0,0,0-1.021-.514,6.022,6.022,0,0,1-1.07-.475,1.479,1.479,0,0,1-.463-.449,1.12,1.12,0,0,1-.158-.61,1.043,1.043,0,0,1,.478-.9,2.321,2.321,0,0,1,1.34-.332,3.981,3.981,0,0,1,1.559.308l-.172.422a3.639,3.639,0,0,0-1.387-.31,2,2,0,0,0-.986.206.629.629,0,0,0-.366.57.786.786,0,0,0,.284.635,3.91,3.91,0,0,0,1.1.535,5.542,5.542,0,0,1,1,.444,1.465,1.465,0,0,1,.468.452,1.1,1.1,0,0,1,.157.593" transform="translate(-2188.246 -719.22)"/><path class="d" d="M2238.478,727.935q0-.451.293-.451a.264.264,0,0,1,.227.117.585.585,0,0,1,.082.334.6.6,0,0,1-.082.331.263.263,0,0,1-.227.121q-.293,0-.293-.452m.527,6.486h-.462v-5.079H2239Z" transform="translate(-2187.695 -719.431)"/><path class="d" d="M2243.77,734.212v-3.294a1.608,1.608,0,0,0-.321-1.114,1.306,1.306,0,0,0-1-.349,1.734,1.734,0,0,0-1.334.461,2.169,2.169,0,0,0-.423,1.491v2.8h-.462v-5.079h.394l.086.7h.028a1.909,1.909,0,0,1,1.761-.794q1.729,0,1.728,1.854v3.321Z" transform="translate(-2187.458 -719.22)"/><path class="d" d="M2248.117,734.212l-.116-.8h-.038a2.406,2.406,0,0,1-.787.693,2.081,2.081,0,0,1-.955.206,1.644,1.644,0,0,1-1.164-.385,1.368,1.368,0,0,1-.416-1.061,1.311,1.311,0,0,1,.619-1.154,3.373,3.373,0,0,1,1.792-.435l.966-.027v-.337a1.716,1.716,0,0,0-.294-1.091,1.131,1.131,0,0,0-.948-.369,3.155,3.155,0,0,0-1.463.393l-.173-.4a3.883,3.883,0,0,1,1.654-.392,1.652,1.652,0,0,1,1.25.433,1.9,1.9,0,0,1,.412,1.355v3.379Zm-1.868-.328a1.616,1.616,0,0,0,1.752-1.757v-.5l-.887.038a3.348,3.348,0,0,0-1.526.335,1.082,1.082,0,0,0-.164,1.622,1.2,1.2,0,0,0,.824.262" transform="translate(-2186.86 -719.219)"/><path class="d" d="M2250.67,734.029a3.53,3.53,0,0,0,.765-.074v.372a2.4,2.4,0,0,1-.775.114,1.252,1.252,0,0,1-.991-.361,1.661,1.661,0,0,1-.32-1.13V729.67h-.753v-.27l.753-.209.234-1.151h.237v1.229h1.49v.4h-1.49v3.214a1.461,1.461,0,0,0,.206.865.749.749,0,0,0,.645.281" transform="translate(-2186.324 -719.356)"/><path class="d" d="M2252.261,729.122v3.287a1.609,1.609,0,0,0,.323,1.117,1.3,1.3,0,0,0,1,.346,1.745,1.745,0,0,0,1.334-.458,2.142,2.142,0,0,0,.428-1.489v-2.8h.458V734.2h-.394l-.084-.7h-.027a1.906,1.906,0,0,1-1.76.795q-1.736,0-1.735-1.855v-3.318Z" transform="translate(-2185.889 -719.209)"/><path class="d" d="M2258.611,729.036a3.992,3.992,0,0,1,.69.065l-.087.444a2.691,2.691,0,0,0-.659-.078,1.281,1.281,0,0,0-1.066.55,2.257,2.257,0,0,0-.414,1.392v2.8h-.464v-5.078H2257l.047.916h.033a2.138,2.138,0,0,1,.668-.787,1.564,1.564,0,0,1,.86-.227" transform="translate(-2185.238 -719.22)"/><path class="d" d="M2262.809,734.212l-.117-.8h-.038a2.407,2.407,0,0,1-.787.693,2.08,2.08,0,0,1-.955.206,1.644,1.644,0,0,1-1.164-.385,1.373,1.373,0,0,1-.416-1.061,1.311,1.311,0,0,1,.619-1.154,3.375,3.375,0,0,1,1.792-.435l.968-.027v-.337a1.717,1.717,0,0,0-.3-1.091,1.133,1.133,0,0,0-.948-.369,3.155,3.155,0,0,0-1.462.393l-.173-.4a3.881,3.881,0,0,1,1.653-.392,1.653,1.653,0,0,1,1.25.433,1.9,1.9,0,0,1,.413,1.355v3.379Zm-1.869-.328a1.616,1.616,0,0,0,1.752-1.757v-.5l-.887.038a3.351,3.351,0,0,0-1.526.335,1.082,1.082,0,0,0-.164,1.622,1.2,1.2,0,0,0,.824.262" transform="translate(-2184.869 -719.219)"/><g transform="translate(0 45.76)"><g class="e"><rect class="f" width="28.122" height="28.448" transform="translate(-10.788 9.434) rotate(-41.17)"/></g></g><g transform="translate(8.641 23.049)"><g class="g"><rect class="h" width="83.442" height="81.056" transform="matrix(0.753, -0.658, 0.658, 0.753, -22.626, 19.786)"/></g></g><g transform="translate(87.162 37.733)"><g class="i"><rect class="j" width="7.023" height="7.103" transform="matrix(0.753, -0.658, 0.658, 0.753, -2.691, 2.354)"/></g></g><g transform="translate(74.178 44.392)"><g class="k"><rect class="l" width="47.448" height="45.624" transform="matrix(0.753, -0.658, 0.658, 0.753, -11.558, 10.108)"/></g></g><g transform="translate(6.972)"><g class="m"><rect class="n" width="105.078" height="99.597" transform="translate(-21.567 18.86) rotate(-41.169)"/></g></g><g transform="translate(8.005 69.305)"><g class="o"><rect class="p" width="104.818" height="99.572" transform="translate(-22.27 19.354) rotate(-41.17)"/></g></g></svg>