<svg xmlns="http://www.w3.org/2000/svg" xmlns:xlink="http://www.w3.org/1999/xlink" width="137.589" height="113.964" viewBox="0 0 137.589 113.964"><defs><style>.a{fill:none;}.b{clip-path:url(#a);}.c{fill:url(#b);}.d{fill:#7d0754;}.e{clip-path:url(#c);}.f{fill:url(#d);}.g{clip-path:url(#e);}.h{fill:url(#f);}.i{clip-path:url(#g);}.j{fill:url(#h);}.k{clip-path:url(#i);}.l{fill:url(#j);}.m{clip-path:url(#k);}.n{fill:url(#l);}.o{clip-path:url(#m);}.p{fill:url(#n);}</style><clipPath id="a"><path class="a" d="M2136.712,740.173v12.8h8.588v27.953a28.062,28.062,0,0,1-56.124,0V752.976h8.589v-12.8h-21.454v40.756a40.927,40.927,0,0,0,81.854,0V740.173h-21.454Z" transform="translate(-2076.311 -740.173)"/></clipPath><linearGradient id="b" x1="-20.135" y1="1.227" x2="-20.125" y2="1.227" gradientUnits="objectBoundingBox"><stop offset="0" stop-color="#fff"/><stop offset="1" stop-color="#d2dcf7"/></linearGradient><clipPath id="c"><path class="a" d="M2067.378,780.9a1.714,1.714,0,0,1,.237-.853l1.934-3.4q1.887-3.447,4.557-7.342t4.179-4.841a1.525,1.525,0,0,1,.851-.282c.471,0,.708.328.708.991a13.92,13.92,0,0,1-1.228,4.485l-.566,1.226a26.343,26.343,0,0,1-1.535,3.047q-1.017,1.773-2.219,3.541a14.351,14.351,0,0,1-2.715,3.021,4.6,4.6,0,0,1-2.881,1.254q-1.322,0-1.322-.848m9.349-22.124a10.866,10.866,0,0,0-1.178,1.369q-.617.826-1.324,1.937c-.472.737-.883,1.416-1.228,2.029s-.708,1.258-1.086,1.937-.63,1.132-.755,1.368-.22.418-.284.543q-3.825,7.035-10.671,18.982l-2.787,4.628q-2.785,4.672-5.547,9.938t-2.764,6.54c0,.282.159.424.472.424a3.16,3.16,0,0,0,1.96-1.155,18.566,18.566,0,0,0,2.125-2.55q.969-1.393,2.055-3.234c.723-1.226,1.211-2.079,1.461-2.55s.459-.85.617-1.134q1.651-3.448,4.437-8.545t4.062-6.987l.33-.19a1.007,1.007,0,0,1,.377.165,3.877,3.877,0,0,0,.851.329,4.282,4.282,0,0,0,1.228.166,8.973,8.973,0,0,0,4.6-1.322,14.2,14.2,0,0,0,3.754-3.14,31.919,31.919,0,0,0,2.691-3.752,29.109,29.109,0,0,0,1.723-3.165,11.591,11.591,0,0,0,.543-1.323,16.671,16.671,0,0,0,1.464-6.044q0-3.02-1.841-3.022a3.794,3.794,0,0,0-1.819.569,10.136,10.136,0,0,0-1.793,1.25,21.8,21.8,0,0,0-1.631,1.6c-.567.612-.942,1.031-1.133,1.25a4.666,4.666,0,0,0-.424.568c-.126.126-.22.19-.283.19s-.1-.049-.1-.141a.422.422,0,0,1,.049-.191l.8-1.558q.753-1.513,1.534-3.4a8.574,8.574,0,0,0,.778-2.549c0-.253-.11-.377-.329-.377a1.566,1.566,0,0,0-.945.542" transform="translate(-2049.104 -758.239)"/></clipPath><linearGradient id="d" x1="-38.008" y1="1.776" x2="-37.989" y2="1.776" gradientUnits="objectBoundingBox"><stop offset="0" stop-color="#7d0754"/><stop offset="1" stop-color="#490754"/></linearGradient><clipPath id="e"><path class="a" d="M2093.209,760.643a5.322,5.322,0,0,0-1.04.685,56.927,56.927,0,0,0-7.507,7.128c-.158.158-.269.236-.332.236a.082.082,0,0,1-.093-.094,1.853,1.853,0,0,1,.093-.332,30.973,30.973,0,0,1,2.386-3.941,16.145,16.145,0,0,0,2.054-3.518c0-.22-.142-.332-.426-.332q-3.163,0-6.043,5.431l-4.958,8.639-.425.71q-.379.709-.946,1.747c-.377.693-.754,1.4-1.132,2.126s-.7,1.384-.969,1.983a3.944,3.944,0,0,0-.4,1.179c0,.223.221.332.661.332a3.829,3.829,0,0,0,2.454-.966,6.553,6.553,0,0,0,1.75-2.1l.565-1.088a30.828,30.828,0,0,1,1.866-3.258,49.762,49.762,0,0,1,2.9-4.108q5.243-6.42,6.659-6.42c.22,0,.332.142.332.425q0,1.606-2.786,5.95a.821.821,0,0,0-.143.377c0,.188.127.284.38.284a2.016,2.016,0,0,0,.706-.141,7.128,7.128,0,0,0,.71-.31,4.706,4.706,0,0,0,.661-.4c.219-.157.4-.29.544-.4s.275-.212.4-.307l.189-.19a13.724,13.724,0,0,0,3.069-4.155,9.724,9.724,0,0,0,1.133-4.062q0-1.557-.9-1.556a2.966,2.966,0,0,0-1.415.449" transform="translate(-2073.471 -760.194)"/></clipPath><linearGradient id="f" x1="-74.54" y1="3.285" x2="-74.504" y2="3.285" xlink:href="#d"/><clipPath id="g"><path class="a" d="M2132.217,754.969a4.5,4.5,0,0,0-.99,2.667q0,1.414,1.18,1.415a3.086,3.086,0,0,0,2.313-1.248,3.916,3.916,0,0,0,1.086-2.575q0-1.6-1.415-1.606a2.754,2.754,0,0,0-2.173,1.347" transform="translate(-2131.227 -753.622)"/></clipPath><linearGradient id="h" x1="-339.464" y1="15.209" x2="-339.305" y2="15.209" xlink:href="#d"/><clipPath id="i"><path class="a" d="M2092.827,772.26q0-.944,2.2-4.321a23.522,23.522,0,0,1,3.66-4.652l.237-.189a1.972,1.972,0,0,1,.542-.353,1.511,1.511,0,0,1,.639-.163c.313,0,.47.251.47.754a4.939,4.939,0,0,1-.565,2.077,14.678,14.678,0,0,1-3.045,4.345,13.076,13.076,0,0,1-2.787,2.219,4.108,4.108,0,0,1-1.251.474c-.065,0-.1-.064-.1-.19m6.517-10.72a19.077,19.077,0,0,0-8.57,7.414q-3.7,5.476-3.706,10.484,0,3.022,2.171,3.019a8.9,8.9,0,0,0,4.535-1.818,30.488,30.488,0,0,0,4.719-3.8c.538-.518,1.107-1.088,1.692-1.684l-.464.833q-.9,1.6-1.794,3.422a8.239,8.239,0,0,0-.9,2.245c0,.217.2.33.612.33q2.032,0,4.249-3.069l1.937-2.5q1.885-2.458,4.909-5.738a34.826,34.826,0,0,1,5.242-4.84l.662-.286c.125,0,.188.081.188.238a6.678,6.678,0,0,1-.873,1.959c-.583,1.057-1.307,2.313-2.172,3.778s-1.408,2.416-1.628,2.856l-.9,1.607q-.9,1.6-1.793,3.422a8.2,8.2,0,0,0-.9,2.245c0,.252.2.377.614.377q2.076,0,4.249-3.116l1.935-2.5q1.937-2.458,4.958-5.738a36.522,36.522,0,0,1,5.194-4.84l.661-.236a.209.209,0,0,1,.236.236,5.133,5.133,0,0,1-.851,1.748q-.094.189-1.581,2.645t-2.455,4.153q-.969,1.7-1.937,3.78a8.438,8.438,0,0,0-.968,2.973q0,.9.756.9,1.748,0,7.319-5.194.69-.668,1.433-1.418c-.351.728-.705,1.5-1.056,2.362a9.272,9.272,0,0,0-.852,3.162c0,.726.269,1.088.8,1.088q1.559,0,7.081-5.194c.523-.5,1.075-1.056,1.644-1.633-.5.958-.993,2.03-1.48,3.237a8.78,8.78,0,0,0-.779,2.881q0,.85.662.849,1.415,0,5.1-3.494l1.041-.9q.989-.9,2.877-2.808t3.637-3.945a.389.389,0,0,1,.234-.143c.065,0,.1.049.1.143l-1.465,2.5-.849,1.606q-.848,1.606-1.7,3.494a8.373,8.373,0,0,0-.849,2.455c0,.662.235.991.708.991q1.037,0,3.328-1.745a50.635,50.635,0,0,0,4.131-3.494c.536-.517,1.106-1.087,1.69-1.682l-.462.831q-.9,1.6-1.795,3.422a8.325,8.325,0,0,0-.9,2.245c0,.217.2.33.615.33q2.03,0,4.249-3.069l1.935-2.5q1.889-2.458,4.91-5.738a34.779,34.779,0,0,1,5.243-4.84l.661-.286c.125,0,.188.081.188.238a6.637,6.637,0,0,1-.872,1.959c-.583,1.057-1.307,2.313-2.171,3.778s-1.409,2.416-1.63,2.856l-.9,1.607q-.9,1.6-1.794,3.422a8.248,8.248,0,0,0-.9,2.245c0,.252.2.377.613.377q2.076,0,4.248-3.116l1.937-2.5q1.935-2.458,4.958-5.738a36.535,36.535,0,0,1,5.194-4.84l.661-.236a.208.208,0,0,1,.236.236,5.128,5.128,0,0,1-.851,1.748q-.092.189-1.582,2.645t-2.454,4.153q-.967,1.7-1.936,3.78a8.441,8.441,0,0,0-.967,2.973q0,.9.755.9,1.746,0,7.318-5.194,2.693-2.6,6.185-6.468a2.719,2.719,0,0,0,.709-1.749c0-.126-.032-.19-.094-.19a.381.381,0,0,0-.236.143q-3.257,3.729-5.24,5.713-2.267,2.265-3.07,2.267c-.188,0-.284-.141-.284-.426q0-1.416,3.59-6.942a39.713,39.713,0,0,0,2.36-4.321,25.239,25.239,0,0,0,1.087-2.6,3.868,3.868,0,0,0,.19-.824q0-.661-.708-.662a2.669,2.669,0,0,0-.993.236,26.351,26.351,0,0,0-5.641,4.227q-3.425,3.141-4.864,4.7t-2.339,2.6q-.329.332-.47.332c-.062,0-.1-.047-.1-.141a3.664,3.664,0,0,1,.5-1.133q.5-.9,1.229-2.127c.487-.818.812-1.369.967-1.651q2.786-5.149,2.787-6.375a.585.585,0,0,0-.661-.662,2.1,2.1,0,0,0-.944.236,26.8,26.8,0,0,0-5.667,4.227q-3.448,3.141-4.887,4.7t-2.337,2.6c-.22.221-.377.332-.471.332a.083.083,0,0,1-.094-.094,1.084,1.084,0,0,1,.14-.426c.1-.19.268-.51.519-.969s.575-1.023.968-1.7.734-1.283,1.016-1.818q.709-1.371,1.723-3t1.56-2.548a3.424,3.424,0,0,0,.542-1.2c0-.22-.125-.332-.377-.332a4.655,4.655,0,0,0-3.351,1.676,17.044,17.044,0,0,0-2.74,3.8l-3.29,5.83c-.782.849-1.489,1.592-2.094,2.2q-2.546,2.364-3.021,2.362-.281,0-.282-.427,0-1.082,1.935-4.483.328-.569,2.621-4.557t2.951-5.172l.377-.9c0-.252-.142-.378-.424-.378a4.607,4.607,0,0,0-4.015,2.312,38.777,38.777,0,0,1-4.249,5.669,58.431,58.431,0,0,1-6.752,7.129,3.131,3.131,0,0,1-1.465.849c-.188,0-.282-.108-.282-.331q0-.85,3.116-6.563,1.133-2.124,2.974-5.077t1.936-3.139a1.173,1.173,0,0,0,.191-.518c0-.221-.16-.332-.474-.332a4.668,4.668,0,0,0-2.125.827,8.3,8.3,0,0,0-2.313,2.054,80.716,80.716,0,0,0-5.264,8.82c-.648.7-1.252,1.333-1.771,1.851q-2.55,2.364-3.021,2.362-.283,0-.283-.427,0-1.131,1.935-4.532.424-.8,2.645-4.723t2.786-4.958a2.6,2.6,0,0,0,.33-.9c0-.22-.126-.332-.378-.332a4.308,4.308,0,0,0-2.337.827,7.367,7.367,0,0,0-2.054,2.008q-1.833,2.729-5.4,8.97c-.592.636-1.149,1.221-1.631,1.7q-2.267,2.265-3.07,2.267c-.188,0-.283-.141-.283-.426q0-1.416,3.587-6.942a39.658,39.658,0,0,0,2.363-4.321,25.807,25.807,0,0,0,1.086-2.6,4,4,0,0,0,.188-.824c0-.441-.237-.662-.709-.662a2.653,2.653,0,0,0-.991.236,26.322,26.322,0,0,0-5.643,4.227q-3.425,3.141-4.862,4.7t-2.338,2.6c-.222.221-.378.332-.474.332-.062,0-.093-.047-.093-.141a3.6,3.6,0,0,1,.5-1.133q.5-.9,1.226-2.127c.49-.818.812-1.369.969-1.651q2.788-5.149,2.787-6.375a.585.585,0,0,0-.661-.662,2.1,2.1,0,0,0-.945.236,26.769,26.769,0,0,0-5.666,4.227q-3.448,3.141-4.886,4.7t-2.337,2.6c-.222.221-.378.332-.473.332a.083.083,0,0,1-.093-.094,1.069,1.069,0,0,1,.142-.426c.094-.19.266-.51.519-.969s.574-1.023.967-1.7.732-1.283,1.015-1.818q.71-1.371,1.724-3t1.56-2.548a3.447,3.447,0,0,0,.542-1.2c0-.22-.126-.332-.377-.332a4.659,4.659,0,0,0-3.352,1.676,17.041,17.041,0,0,0-2.739,3.8l-3.276,5.8c-1.623,1.77-2.993,3.188-4.043,4.156q-3.308,3.071-5.336,3.071c-.85,0-1.274-.569-1.274-1.7a10.218,10.218,0,0,1,.708-3.446.56.56,0,0,1,.33-.33,27.116,27.116,0,0,0,8.688-5.385q3.872-3.541,3.872-6.28c0-.973-.613-1.464-1.842-1.464a9.683,9.683,0,0,0-3.683.849" transform="translate(-2087.068 -760.691)"/></clipPath><linearGradient id="j" x1="-30.016" y1="1.523" x2="-30.001" y2="1.523" xlink:href="#d"/><clipPath id="k"><path class="a" d="M2067.648,720.392V763.2s0,.715.65.715a.645.645,0,0,0,.708-.671V721.751h98.812v41.318s-.024.6.715.6a.6.6,0,0,0,.644-.6V720.392Z" transform="translate(-2067.648 -720.392)"/></clipPath><linearGradient id="l" x1="-23.427" y1="1.664" x2="-23.415" y2="1.664" xlink:href="#d"/><clipPath id="m"><path class="a" d="M2167.2,781.944c-.136,1.007-.265,2.016-.46,3-.056.277-.12.551-.181.826a49.243,49.243,0,0,1-10.072,20.841c-.107.129-.218.251-.327.379q-1.32,1.579-2.767,3.047c-.091.092-.177.186-.266.277-1.034,1.028-2.118,2.009-3.239,2.943l-.361.3q-1.72,1.407-3.563,2.663c-.062.043-.125.083-.188.125a49.386,49.386,0,0,1-8.171,4.441c-.051.022-.1.047-.153.068-1.366.577-2.767,1.082-4.192,1.536-.183.057-.364.117-.545.174q-2.062.629-4.2,1.08c-.22.048-.442.089-.663.132-1.431.283-2.881.511-4.354.667-.171.017-.342.026-.513.043-1.549.144-3.113.237-4.7.237s-3.15-.093-4.7-.237c-.172-.017-.344-.026-.515-.043-1.473-.156-2.923-.384-4.354-.667-.221-.043-.443-.084-.663-.132q-2.131-.45-4.2-1.08c-.183-.057-.364-.117-.546-.174-1.424-.454-2.825-.959-4.191-1.536-.051-.022-.1-.047-.155-.068a49.378,49.378,0,0,1-8.169-4.441c-.062-.042-.127-.082-.191-.125q-1.841-1.252-3.562-2.663l-.361-.3c-1.121-.935-2.2-1.916-3.237-2.943-.091-.091-.177-.185-.267-.277q-1.447-1.467-2.768-3.047c-.107-.128-.219-.25-.326-.379a49.252,49.252,0,0,1-10.073-20.841c-.021-.09-.04-.181-.06-.27a.777.777,0,0,0-.823-.646.511.511,0,0,0-.566.646c.108.519.217,1.04.338,1.553.045.193.077.386.126.576,0,.008.01.011.012.018a50.619,50.619,0,0,0,9.828,19.619c0,.007,0,.016.007.02l.114.132q.841,1.032,1.736,2.018c.122.136.251.261.374.394.467.5.941,1,1.427,1.485.322.321.656.628.984.939.294.276.584.553.882.822.393.352.792.693,1.192,1.033.244.2.488.409.735.611q.667.543,1.352,1.063c.2.153.406.3.612.455.5.368,1,.73,1.518,1.08.145.1.293.192.438.29a50.422,50.422,0,0,0,7.891,4.295c.164.07.325.148.49.216.522.22,1.049.422,1.579.625.3.116.606.234.913.346.472.17.95.327,1.427.483.377.124.756.245,1.138.361q.657.2,1.321.376c.435.119.871.228,1.308.335.413.1.824.2,1.24.285.48.1.965.2,1.451.287.387.073.773.148,1.163.209.529.086,1.068.157,1.6.226.355.044.708.1,1.062.135.606.064,1.217.11,1.828.154.3.019.59.051.886.066.9.049,1.815.076,2.732.076h.022c.917,0,1.827-.027,2.732-.076.3-.015.589-.047.885-.066.612-.044,1.223-.091,1.829-.154.354-.04.706-.091,1.061-.135.537-.069,1.074-.14,1.6-.226.389-.061.774-.136,1.162-.209.486-.09.971-.183,1.451-.287.415-.089.828-.185,1.241-.285.437-.107.874-.216,1.306-.335s.883-.244,1.322-.376c.382-.116.761-.237,1.138-.361.479-.156.956-.312,1.427-.483.307-.112.609-.231.913-.346.529-.2,1.059-.4,1.579-.625.165-.068.327-.145.492-.216a50.423,50.423,0,0,0,7.89-4.295c.145-.1.294-.191.438-.29.513-.35,1.019-.712,1.519-1.08.2-.151.409-.3.612-.455q.683-.519,1.351-1.063c.248-.2.49-.407.735-.611.4-.341.8-.681,1.191-1.033.3-.269.591-.546.882-.822.33-.311.663-.618.986-.939.487-.484.96-.981,1.428-1.485.123-.133.251-.258.372-.394q.9-.983,1.736-2.018c.036-.044.076-.087.114-.132,0,0,0-.014.006-.02a50.624,50.624,0,0,0,9.831-19.619c0-.007.01-.01.012-.018.047-.19.08-.383.126-.576.162-.684.314-1.373.45-2.069.06-.321.116-.642.173-.964q.166-.957.3-1.924c.007-.051.011-.1.019-.153,0,0,0-.52-.676-.52-.692,0-.734.52-.734.52" transform="translate(-2068.556 -781.424)"/></clipPath><linearGradient id="n" x1="-23.437" y1="0.998" x2="-23.426" y2="0.998" xlink:href="#d"/></defs><g transform="translate(30.895 22.462)"><g class="b"><rect class="c" width="115.639" height="115.639" transform="translate(-40.842 40.842) rotate(-45)"/></g></g><path class="d" d="M2097.734,734.212l-.116-.8h-.038a2.4,2.4,0,0,1-.787.694,2.1,2.1,0,0,1-.955.2,1.641,1.641,0,0,1-1.164-.385,1.366,1.366,0,0,1-.416-1.061,1.311,1.311,0,0,1,.619-1.154,3.374,3.374,0,0,1,1.792-.435l.966-.027v-.337a1.717,1.717,0,0,0-.293-1.091,1.137,1.137,0,0,0-.949-.369,3.156,3.156,0,0,0-1.462.393l-.172-.4a3.9,3.9,0,0,1,1.653-.392,1.652,1.652,0,0,1,1.25.433,1.906,1.906,0,0,1,.414,1.356v3.378Zm-1.868-.328a1.615,1.615,0,0,0,1.752-1.757v-.5l-.887.036a3.349,3.349,0,0,0-1.526.335.961.961,0,0,0-.456.88.95.95,0,0,0,.292.742,1.191,1.191,0,0,0,.824.262" transform="translate(-2042.983 -719.219)"/><path class="d" d="M2102.061,732.891a1.21,1.21,0,0,1-.519,1.049,2.534,2.534,0,0,1-1.472.366,3.532,3.532,0,0,1-1.616-.312v-.5a3.565,3.565,0,0,0,1.616.383,2.129,2.129,0,0,0,1.143-.249.758.758,0,0,0,.389-.665.808.808,0,0,0-.31-.644,3.4,3.4,0,0,0-1.021-.514,6.03,6.03,0,0,1-1.07-.474,1.5,1.5,0,0,1-.464-.45,1.127,1.127,0,0,1-.157-.61,1.045,1.045,0,0,1,.478-.9,2.321,2.321,0,0,1,1.34-.332,3.982,3.982,0,0,1,1.559.308l-.172.422a3.64,3.64,0,0,0-1.387-.31,2.007,2.007,0,0,0-.987.206.632.632,0,0,0-.364.57.79.79,0,0,0,.283.636,3.968,3.968,0,0,0,1.1.534,5.589,5.589,0,0,1,1,.444,1.451,1.451,0,0,1,.467.452,1.089,1.089,0,0,1,.158.594" transform="translate(-2042.415 -719.22)"/><path class="d" d="M2105.775,732.891a1.21,1.21,0,0,1-.519,1.049,2.534,2.534,0,0,1-1.472.366,3.534,3.534,0,0,1-1.616-.312v-.5a3.567,3.567,0,0,0,1.616.383,2.128,2.128,0,0,0,1.142-.249.758.758,0,0,0,.389-.665.809.809,0,0,0-.31-.644,3.4,3.4,0,0,0-1.021-.514,6.038,6.038,0,0,1-1.07-.474,1.5,1.5,0,0,1-.464-.45,1.127,1.127,0,0,1-.157-.61,1.044,1.044,0,0,1,.478-.9,2.321,2.321,0,0,1,1.34-.332,3.981,3.981,0,0,1,1.559.308l-.172.422a3.639,3.639,0,0,0-1.387-.31,2.007,2.007,0,0,0-.987.206.632.632,0,0,0-.365.57.79.79,0,0,0,.283.636,3.966,3.966,0,0,0,1.105.534,5.593,5.593,0,0,1,1,.444,1.466,1.466,0,0,1,.468.452,1.093,1.093,0,0,1,.158.594" transform="translate(-2041.911 -719.22)"/><path class="d" d="M2106.228,727.935c0-.3.1-.448.294-.448a.264.264,0,0,1,.227.115.714.714,0,0,1,0,.664.26.26,0,0,1-.227.121c-.2,0-.294-.15-.294-.452m.528,6.487h-.462v-5.078h.462Z" transform="translate(-2041.361 -719.43)"/><path class="d" d="M2111.521,734.213V730.92a1.6,1.6,0,0,0-.323-1.115,1.3,1.3,0,0,0-1-.349,1.733,1.733,0,0,0-1.334.461,2.169,2.169,0,0,0-.423,1.491v2.8h-.463v-5.078h.394l.088.7h.028a1.907,1.907,0,0,1,1.76-.794q1.73,0,1.728,1.854v3.321Z" transform="translate(-2041.124 -719.22)"/><path class="d" d="M2115.868,734.212l-.117-.8h-.036a2.41,2.41,0,0,1-.787.694,2.1,2.1,0,0,1-.955.2,1.644,1.644,0,0,1-1.164-.385,1.367,1.367,0,0,1-.416-1.061,1.313,1.313,0,0,1,.618-1.154,3.38,3.38,0,0,1,1.792-.435l.968-.027v-.337a1.714,1.714,0,0,0-.294-1.091,1.135,1.135,0,0,0-.948-.369,3.15,3.15,0,0,0-1.462.393l-.173-.4a3.9,3.9,0,0,1,1.654-.392,1.654,1.654,0,0,1,1.25.433,1.912,1.912,0,0,1,.412,1.356v3.378Zm-1.868-.328a1.616,1.616,0,0,0,1.751-1.757v-.5l-.887.036a3.344,3.344,0,0,0-1.525.335.962.962,0,0,0-.457.88.951.951,0,0,0,.293.742,1.191,1.191,0,0,0,.824.262" transform="translate(-2040.526 -719.219)"/><path class="d" d="M2118.421,734.03a3.53,3.53,0,0,0,.765-.074v.372a2.4,2.4,0,0,1-.775.114,1.255,1.255,0,0,1-.992-.361,1.666,1.666,0,0,1-.321-1.13v-3.279h-.751V729.4l.751-.209.235-1.15h.238v1.229h1.49v.4h-1.49v3.212a1.458,1.458,0,0,0,.206.865.747.747,0,0,0,.645.281" transform="translate(-2039.99 -719.355)"/><path class="d" d="M2120.012,729.123v3.287a1.612,1.612,0,0,0,.322,1.116,1.3,1.3,0,0,0,1,.346,1.751,1.751,0,0,0,1.334-.457,2.148,2.148,0,0,0,.426-1.49v-2.8h.459V734.2h-.393l-.084-.7h-.026a1.912,1.912,0,0,1-1.761.795q-1.736,0-1.735-1.855v-3.317Z" transform="translate(-2039.555 -719.209)"/><path class="d" d="M2126.361,729.036a4.013,4.013,0,0,1,.69.066l-.087.444a2.692,2.692,0,0,0-.659-.079,1.282,1.282,0,0,0-1.066.55,2.257,2.257,0,0,0-.415,1.392v2.8h-.463v-5.077h.393l.047.916h.033a2.13,2.13,0,0,1,.667-.787,1.556,1.556,0,0,1,.86-.228" transform="translate(-2038.903 -719.22)"/><path class="d" d="M2130.559,734.212l-.116-.8h-.038a2.4,2.4,0,0,1-.787.694,2.1,2.1,0,0,1-.955.2,1.642,1.642,0,0,1-1.164-.385,1.368,1.368,0,0,1-.416-1.061,1.309,1.309,0,0,1,.619-1.154,3.376,3.376,0,0,1,1.792-.435l.967-.027v-.337a1.717,1.717,0,0,0-.294-1.091,1.137,1.137,0,0,0-.948-.369,3.154,3.154,0,0,0-1.462.393l-.173-.4a3.9,3.9,0,0,1,1.653-.392,1.655,1.655,0,0,1,1.25.433,1.908,1.908,0,0,1,.412,1.356v3.378Zm-1.868-.328a1.615,1.615,0,0,0,1.752-1.757v-.5l-.888.036a3.351,3.351,0,0,0-1.525.335.961.961,0,0,0-.455.88.952.952,0,0,0,.292.742,1.192,1.192,0,0,0,.825.262" transform="translate(-2038.534 -719.219)"/><g transform="translate(0 42.977)"><g class="e"><rect class="f" width="60.651" height="59.322" transform="matrix(0.663, -0.749, 0.749, 0.663, -24.934, 28.162)"/></g></g><g transform="translate(27.67 45.197)"><g class="g"><rect class="h" width="31.408" height="31.376" transform="matrix(0.663, -0.749, 0.749, 0.663, -11.131, 12.572)"/></g></g><g transform="translate(93.254 37.734)"><g class="i"><rect class="j" width="7.1" height="7.027" transform="matrix(0.663, -0.749, 0.749, 0.663, -2.695, 3.044)"/></g></g><g transform="translate(43.11 45.761)"><g class="k"><rect class="l" width="78.927" height="85.167" transform="translate(-10.804 12.203) rotate(-48.479)"/></g></g><g transform="translate(21.057)"><g class="m"><rect class="n" width="99.888" height="104.867" transform="translate(-21.601 24.398) rotate(-48.479)"/></g></g><g transform="translate(22.089 69.305)"><g class="o"><rect class="p" width="99.853" height="104.618" transform="translate(-22.304 25.035) rotate(-48.479)"/></g></g></svg>