<svg xmlns="http://www.w3.org/2000/svg" xmlns:xlink="http://www.w3.org/1999/xlink" width="101.529" height="113.967" viewBox="0 0 101.529 113.967"><defs><style>.a{fill:none;}.b{clip-path:url(#a);}.c{fill:url(#b);}.d{clip-path:url(#c);}.e{fill:url(#d);}.f{clip-path:url(#e);}.g{fill:url(#f);}.h{clip-path:url(#g);}.i{fill:url(#h);}.j{fill:#056cef;}</style><clipPath id="a"><path class="a" d="M1605.859,740.173v12.8h8.589V780.93a28.063,28.063,0,1,1-56.125,0V752.976h8.59v-12.8h-21.454V780.93a40.927,40.927,0,0,0,81.854,0V740.173Z" transform="translate(-1545.459 -740.173)"/></clipPath><linearGradient id="b" x1="-14.912" y1="1.24" x2="-14.903" y2="1.24" gradientUnits="objectBoundingBox"><stop offset="0" stop-color="#fff"/><stop offset="1" stop-color="#d2dcf7"/></linearGradient><clipPath id="c"><path class="a" d="M1536.8,720.392h0v63.2a50.985,50.985,0,0,0,1.016,10.143.67.67,0,0,0,.8.529.68.68,0,0,0,.531-.8,49.416,49.416,0,0,1-.991-9.871V721.752h98.812v61.839a49.4,49.4,0,0,1-93.638,22,.68.68,0,0,0-1.216.61,50.762,50.762,0,0,0,96.213-22.61v-63.2Z" transform="translate(-1536.796 -720.392)"/></clipPath><linearGradient id="d" x1="-11.415" y1="1.086" x2="-11.408" y2="1.086" gradientUnits="objectBoundingBox"><stop offset="0" stop-color="#0439d6"/><stop offset="1" stop-color="#070389"/></linearGradient><clipPath id="e"><path class="a" d="M1629.683,765.611a8.421,8.421,0,0,0-2.852,2.594c-.69,1.166-13.3,15.539-14.8,17.041q-3.5,3.243-4.145,3.242c-.261,0-.39-.2-.39-.586q0-1.553,2.655-6.221.586-1.1,3.63-6.478t3.823-6.8a3.619,3.619,0,0,0,.452-1.231q0-.453-.519-.453a5.915,5.915,0,0,0-3.207,1.134,10.05,10.05,0,0,0-2.817,2.753q-2.512,3.735-7.392,12.271c-.606.653-1.191,1.279-1.744,1.856q-3.757,3.759-4.729,3.76c-.216,0-.326-.132-.326-.391a6.891,6.891,0,0,1,.682-2.075q.678-1.555,1.846-3.725t2.2-4.018q1.035-1.85,2.236-3.919t1.457-2.592a1.121,1.121,0,0,0,.2-.454c0-.3-.282-.454-.844-.454a5.09,5.09,0,0,0-3.109,1.2,12.523,12.523,0,0,0-2.105,1.912,7.831,7.831,0,0,0-.811,1.232,43.11,43.11,0,0,1-4.731,6.156q-2.981,3.3-4.308,4.471t-2.105,1.878a3.47,3.47,0,0,1-2.009,1.1c-.3,0-.454-.237-.454-.713a7.162,7.162,0,0,1,.906-3.047,42.108,42.108,0,0,1,8.456-11.7q5.214-5.088,11.178-5.085,1.618,0,1.619-.649,0-1.1-3.629-1.1a19.186,19.186,0,0,0-8.391,1.943,24.647,24.647,0,0,0-7.095,5.087,43.918,43.918,0,0,0-5.283,6.578c-.688,1.059-1.313,2.136-1.9,3.224-.657.7-1.279,1.345-1.827,1.894q-3.11,3.109-4.212,3.11c-.261,0-.39-.194-.39-.581q0-1.945,4.925-9.525a54.881,54.881,0,0,0,3.24-5.931,35.455,35.455,0,0,0,1.49-3.564,5.421,5.421,0,0,0,.26-1.133q0-.906-.972-.906a3.6,3.6,0,0,0-1.361.324,36.234,36.234,0,0,0-7.742,5.8q-4.7,4.311-6.675,6.448t-3.208,3.564c-.3.3-.518.453-.648.453-.086,0-.128-.065-.128-.2a5.018,5.018,0,0,1,.679-1.555q.683-1.228,1.685-2.915t1.329-2.268q3.824-7.065,3.823-8.748a.8.8,0,0,0-.907-.906,2.855,2.855,0,0,0-1.3.324,36.83,36.83,0,0,0-7.776,5.8q-4.73,4.311-6.708,6.448t-3.206,3.564c-.3.3-.519.453-.648.453a.114.114,0,0,1-.129-.129,1.487,1.487,0,0,1,.2-.584q.192-.388.712-1.326t1.329-2.336q.809-1.39,1.392-2.494.973-1.877,2.366-4.114t2.137-3.5a4.722,4.722,0,0,0,.745-1.652c0-.3-.174-.453-.518-.453a6.385,6.385,0,0,0-4.6,2.3,23.393,23.393,0,0,0-3.759,5.214l-6.285,11.146-1.232,2.2q-1.228,2.2-2.462,4.7a11.384,11.384,0,0,0-1.231,3.078c0,.3.282.453.843.453q2.787,0,5.832-4.212l2.656-3.434q2.591-3.369,6.739-7.874a47.691,47.691,0,0,1,7.191-6.64l.908-.391q.257,0,.258.324a9.149,9.149,0,0,1-1.2,2.69q-1.2,2.172-2.981,5.184t-2.236,3.921l-1.23,2.2q-1.235,2.2-2.463,4.7a11.282,11.282,0,0,0-1.23,3.078c0,.344.28.518.842.518q2.851,0,5.831-4.276l2.657-3.434q2.657-3.369,6.8-7.874a49.812,49.812,0,0,1,7.129-6.64l.906-.326a.287.287,0,0,1,.324.326,7.069,7.069,0,0,1-1.166,2.4q-.129.261-2.171,3.627t-3.368,5.7q-1.33,2.332-2.657,5.183a11.579,11.579,0,0,0-1.328,4.083q0,1.228,1.036,1.23,2.4,0,10.045-7.128c.646-.623,1.324-1.3,2.021-2-.062.152-.146.3-.208.445a29.671,29.671,0,0,0-.94,3.047,14.462,14.462,0,0,0-.614,3.367q0,2.206,1.426,2.205,1.359,0,3.887-1.943l1.49-1.3q1.555-1.358,4.049-3.789t4.438-4.567c.477-.477.8-.713.974-.713a.114.114,0,0,1,.128.129,1.779,1.779,0,0,1-.259.584l-1.167,2.008a43.3,43.3,0,0,0-2.3,4.664,11.472,11.472,0,0,0-1.133,3.955c0,.688.3,1.036.907,1.036q2.008,0,7.387-4.924c1.272-1.162,2.692-2.55,4.209-4.092-.476.981-.95,2.022-1.425,3.184a12.763,12.763,0,0,0-1.166,4.342q0,1.49,1.1,1.49,2.14,0,9.72-7.128c2.463-2.373,8.629-9.072,8.7-9.166l6.168-7.227.259-.131c.128,0,.194.173.194.519l-.194,3.5a70.35,70.35,0,0,1-1.135,8.034,20.266,20.266,0,0,1-2.17,6.609l-.648,1.037a8.609,8.609,0,0,1-1.911,2.173,3.962,3.962,0,0,1-2.559,1.069q-1.62,0-1.62-1.945a9.587,9.587,0,0,1,1.459-4.535,12.3,12.3,0,0,1,3.077-3.822.371.371,0,0,0,.13-.26c0-.171-.108-.26-.323-.26a10.582,10.582,0,0,0-4.213,1.88q-4.146,3.047-4.147,6.8,0,3.691,4.731,3.694a11.776,11.776,0,0,0,3.92-.777,15.467,15.467,0,0,0,4.7-2.949,12.678,12.678,0,0,0,3.694-5.346q1.424-3.756,1.426-11.21a19.7,19.7,0,0,1,.453-4.374,13.067,13.067,0,0,1,1.037-3.078,10.054,10.054,0,0,1,1.329-1.942,10.26,10.26,0,0,1,1.037-1.07,1.785,1.785,0,0,1,.486-.292c.344-.172.518-.366.518-.584,0-.344-.216-.519-.647-.519a8.49,8.49,0,0,0-4.277,1.037" transform="translate(-1539.719 -764.574)"/></clipPath><linearGradient id="f" x1="-18.379" y1="1.458" x2="-18.367" y2="1.458" xlink:href="#d"/><clipPath id="g"><path class="a" d="M1609.325,758.49a6.177,6.177,0,0,0-1.362,3.662q0,1.942,1.62,1.944a4.243,4.243,0,0,0,3.176-1.717,5.366,5.366,0,0,0,1.49-3.533q0-2.2-1.944-2.2a3.783,3.783,0,0,0-2.981,1.847" transform="translate(-1607.964 -756.642)"/></clipPath><linearGradient id="h" x1="-190.511" y1="10.904" x2="-190.392" y2="10.904" xlink:href="#d"/></defs><g transform="translate(9.837 22.462)"><g class="b"><rect class="c" width="115.638" height="115.639" transform="translate(-40.842 40.842) rotate(-45)"/></g></g><g class="d"><rect class="e" width="150.052" height="152.271" transform="translate(-55.171 42.724) rotate(-37.754)"/></g><g transform="translate(3.319 50.171)"><g class="f"><rect class="g" width="94.702" height="83.509" transform="matrix(0.791, -0.612, 0.612, 0.791, -15.559, 12.049)"/></g></g><g transform="translate(80.814 41.163)"><g class="h"><rect class="i" width="9.534" height="9.742" transform="matrix(0.791, -0.612, 0.612, 0.791, -3.609, 2.795)"/></g></g><path class="j" d="M1566.883,734.212l-.117-.8h-.037a2.4,2.4,0,0,1-.787.694,2.1,2.1,0,0,1-.955.2,1.646,1.646,0,0,1-1.164-.385,1.367,1.367,0,0,1-.416-1.061,1.311,1.311,0,0,1,.619-1.154,3.374,3.374,0,0,1,1.792-.435l.966-.027v-.337a1.716,1.716,0,0,0-.294-1.091,1.135,1.135,0,0,0-.948-.369,3.155,3.155,0,0,0-1.463.393l-.173-.4a3.9,3.9,0,0,1,1.653-.392,1.654,1.654,0,0,1,1.25.433,1.913,1.913,0,0,1,.412,1.356v3.378Zm-1.869-.328a1.614,1.614,0,0,0,1.752-1.757v-.5l-.888.036a3.364,3.364,0,0,0-1.525.335.963.963,0,0,0-.455.88.949.949,0,0,0,.292.742,1.192,1.192,0,0,0,.824.262" transform="translate(-1533.189 -719.219)"/><path class="j" d="M1571.208,732.891a1.211,1.211,0,0,1-.518,1.049,2.538,2.538,0,0,1-1.473.366,3.536,3.536,0,0,1-1.616-.312v-.5a3.568,3.568,0,0,0,1.616.383,2.128,2.128,0,0,0,1.142-.249.758.758,0,0,0,.39-.665.806.806,0,0,0-.31-.644,3.4,3.4,0,0,0-1.02-.514,6.022,6.022,0,0,1-1.071-.474,1.477,1.477,0,0,1-.463-.45,1.115,1.115,0,0,1-.158-.61,1.045,1.045,0,0,1,.478-.9,2.322,2.322,0,0,1,1.34-.332,3.982,3.982,0,0,1,1.559.308l-.173.422a3.638,3.638,0,0,0-1.387-.31,2,2,0,0,0-.985.206.63.63,0,0,0-.366.57.789.789,0,0,0,.284.636,3.965,3.965,0,0,0,1.1.534,5.6,5.6,0,0,1,1,.444,1.469,1.469,0,0,1,.469.452,1.1,1.1,0,0,1,.157.594" transform="translate(-1532.62 -719.22)"/><path class="j" d="M1574.922,732.891a1.211,1.211,0,0,1-.518,1.049,2.538,2.538,0,0,1-1.473.366,3.536,3.536,0,0,1-1.616-.312v-.5a3.568,3.568,0,0,0,1.616.383,2.128,2.128,0,0,0,1.142-.249.758.758,0,0,0,.389-.665.805.805,0,0,0-.31-.644,3.4,3.4,0,0,0-1.02-.514,6.022,6.022,0,0,1-1.071-.474,1.477,1.477,0,0,1-.463-.45,1.115,1.115,0,0,1-.158-.61,1.045,1.045,0,0,1,.478-.9,2.322,2.322,0,0,1,1.34-.332,3.982,3.982,0,0,1,1.559.308l-.173.422a3.638,3.638,0,0,0-1.387-.31,2.008,2.008,0,0,0-.987.206.631.631,0,0,0-.365.57.789.789,0,0,0,.284.636,3.965,3.965,0,0,0,1.1.534,5.606,5.606,0,0,1,1,.444,1.47,1.47,0,0,1,.469.452,1.1,1.1,0,0,1,.157.594" transform="translate(-1532.117 -719.22)"/><path class="j" d="M1575.376,727.935c0-.3.1-.448.294-.448a.263.263,0,0,1,.227.116.585.585,0,0,1,.082.333.6.6,0,0,1-.082.332.26.26,0,0,1-.227.122q-.295,0-.294-.453m.528,6.487h-.462v-5.078h.462Z" transform="translate(-1531.567 -719.43)"/><path class="j" d="M1580.669,734.213V730.92a1.6,1.6,0,0,0-.322-1.115,1.3,1.3,0,0,0-1-.349,1.735,1.735,0,0,0-1.335.461,2.17,2.17,0,0,0-.421,1.491v2.8h-.463v-5.078h.393l.088.7h.028a1.908,1.908,0,0,1,1.761-.794q1.729,0,1.728,1.854v3.321Z" transform="translate(-1531.329 -719.22)"/><path class="j" d="M1585.016,734.212l-.116-.8h-.038a2.409,2.409,0,0,1-.787.694,2.094,2.094,0,0,1-.955.2,1.644,1.644,0,0,1-1.164-.385,1.367,1.367,0,0,1-.416-1.061,1.311,1.311,0,0,1,.619-1.154,3.371,3.371,0,0,1,1.792-.435l.966-.027v-.337a1.716,1.716,0,0,0-.294-1.091,1.135,1.135,0,0,0-.948-.369,3.152,3.152,0,0,0-1.463.393l-.173-.4a3.9,3.9,0,0,1,1.653-.392,1.654,1.654,0,0,1,1.25.433,1.912,1.912,0,0,1,.412,1.356v3.378Zm-1.868-.328a1.614,1.614,0,0,0,1.752-1.757v-.5l-.888.036a3.359,3.359,0,0,0-1.525.335.963.963,0,0,0-.456.88.95.95,0,0,0,.293.742,1.192,1.192,0,0,0,.824.262" transform="translate(-1530.731 -719.219)"/><path class="j" d="M1587.568,734.03a3.526,3.526,0,0,0,.765-.074v.372a2.4,2.4,0,0,1-.776.114,1.253,1.253,0,0,1-.991-.361,1.66,1.66,0,0,1-.32-1.13v-3.279h-.753V729.4l.753-.209.234-1.15h.237v1.229h1.49v.4h-1.49v3.212a1.459,1.459,0,0,0,.205.865.747.747,0,0,0,.645.281" transform="translate(-1530.196 -719.355)"/><path class="j" d="M1589.16,729.123v3.287a1.612,1.612,0,0,0,.323,1.116,1.3,1.3,0,0,0,1,.346,1.751,1.751,0,0,0,1.334-.457,2.143,2.143,0,0,0,.427-1.49v-2.8h.458V734.2h-.393l-.083-.7h-.027a1.912,1.912,0,0,1-1.761.795q-1.736,0-1.734-1.855v-3.317Z" transform="translate(-1529.76 -719.209)"/><path class="j" d="M1595.509,729.036a4.014,4.014,0,0,1,.691.066l-.089.444a2.676,2.676,0,0,0-.658-.079,1.283,1.283,0,0,0-1.066.55,2.25,2.25,0,0,0-.414,1.392v2.8h-.463v-5.077h.393l.047.916h.033a2.11,2.11,0,0,1,.668-.787,1.553,1.553,0,0,1,.86-.228" transform="translate(-1529.109 -719.22)"/><path class="j" d="M1599.708,734.212l-.117-.8h-.037a2.408,2.408,0,0,1-.787.694,2.1,2.1,0,0,1-.955.2,1.644,1.644,0,0,1-1.164-.385,1.367,1.367,0,0,1-.416-1.061,1.311,1.311,0,0,1,.619-1.154,3.374,3.374,0,0,1,1.792-.435l.966-.027v-.337a1.716,1.716,0,0,0-.294-1.091,1.135,1.135,0,0,0-.948-.369,3.155,3.155,0,0,0-1.463.393l-.173-.4a3.9,3.9,0,0,1,1.653-.392,1.654,1.654,0,0,1,1.25.433,1.912,1.912,0,0,1,.412,1.356v3.378Zm-1.869-.328a1.614,1.614,0,0,0,1.752-1.757v-.5l-.888.036a3.365,3.365,0,0,0-1.525.335.963.963,0,0,0-.455.88.949.949,0,0,0,.292.742,1.191,1.191,0,0,0,.824.262" transform="translate(-1528.74 -719.219)"/></svg>